<svg version="1.1" xmlns="http://www.w3.org/2000/svg" style="display: block;" viewBox="0 0 1639 2048" width="1122" height="1402" preserveAspectRatio="none">
<defs>
	<linearGradient id="Gradient1" gradientUnits="userSpaceOnUse" x1="235.069" y1="1583.98" x2="250.994" y2="1579.52">
		<stop class="stop0" offset="0" stop-opacity="1" stop-color="rgb(5,13,30)"/>
		<stop class="stop1" offset="1" stop-opacity="1" stop-color="rgb(17,44,91)"/>
	</linearGradient>
	<linearGradient id="Gradient2" gradientUnits="userSpaceOnUse" x1="813.043" y1="497.76" x2="822.129" y2="461.541">
		<stop class="stop0" offset="0" stop-opacity="1" stop-color="rgb(200,150,45)"/>
		<stop class="stop1" offset="1" stop-opacity="1" stop-color="rgb(234,182,74)"/>
	</linearGradient>
	<linearGradient id="Gradient3" gradientUnits="userSpaceOnUse" x1="814.944" y1="938.987" x2="821.24" y2="897.805">
		<stop class="stop0" offset="0" stop-opacity="1" stop-color="rgb(189,140,35)"/>
		<stop class="stop1" offset="1" stop-opacity="1" stop-color="rgb(223,172,74)"/>
	</linearGradient>
	<linearGradient id="Gradient4" gradientUnits="userSpaceOnUse" x1="811.458" y1="891.681" x2="827.015" y2="856.768">
		<stop class="stop0" offset="0" stop-opacity="1" stop-color="rgb(196,149,50)"/>
		<stop class="stop1" offset="1" stop-opacity="1" stop-color="rgb(228,179,76)"/>
	</linearGradient>
	<linearGradient id="Gradient5" gradientUnits="userSpaceOnUse" x1="769.095" y1="737.75" x2="865.808" y2="705.953">
		<stop class="stop0" offset="0" stop-opacity="1" stop-color="rgb(199,144,48)"/>
		<stop class="stop1" offset="1" stop-opacity="1" stop-color="rgb(229,183,67)"/>
	</linearGradient>
	<linearGradient id="Gradient6" gradientUnits="userSpaceOnUse" x1="540.977" y1="773.505" x2="564.974" y2="783.306">
		<stop class="stop0" offset="0" stop-opacity="1" stop-color="rgb(184,128,30)"/>
		<stop class="stop1" offset="1" stop-opacity="1" stop-color="rgb(215,164,58)"/>
	</linearGradient>
	<linearGradient id="Gradient7" gradientUnits="userSpaceOnUse" x1="612.357" y1="828.062" x2="643.163" y2="747.981">
		<stop class="stop0" offset="0" stop-opacity="1" stop-color="rgb(184,132,31)"/>
		<stop class="stop1" offset="1" stop-opacity="1" stop-color="rgb(233,183,74)"/>
	</linearGradient>
	<linearGradient id="Gradient8" gradientUnits="userSpaceOnUse" x1="982.012" y1="822.154" x2="1029.63" y2="742.195">
		<stop class="stop0" offset="0" stop-opacity="1" stop-color="rgb(189,137,36)"/>
		<stop class="stop1" offset="1" stop-opacity="1" stop-color="rgb(239,191,85)"/>
	</linearGradient>
	<linearGradient id="Gradient9" gradientUnits="userSpaceOnUse" x1="1563.56" y1="1268.02" x2="1494.04" y2="1195.86">
		<stop class="stop0" offset="0" stop-opacity="1" stop-color="rgb(188,140,41)"/>
		<stop class="stop1" offset="1" stop-opacity="1" stop-color="rgb(227,180,82)"/>
	</linearGradient>
	<linearGradient id="Gradient10" gradientUnits="userSpaceOnUse" x1="143.827" y1="1278.1" x2="317.86" y2="1047.11">
		<stop class="stop0" offset="0" stop-opacity="1" stop-color="rgb(188,136,33)"/>
		<stop class="stop1" offset="1" stop-opacity="1" stop-color="rgb(220,171,65)"/>
	</linearGradient>
</defs>
<path transform="translate(0,0)" fill="rgb(253,252,252)" d="M 0 0 L 1639 0 L 1639 2048 L 0 2048 L 0 0 z"/>
<path transform="translate(0,0)" fill="rgb(208,158,54)" d="M 818.158 996.572 C 857.731 999.074 902.858 998.164 942.955 998.117 C 984.271 998.068 1030.95 999.051 1071.8 996.763 C 1072.44 1014.79 1075.99 1047.57 1074.56 1063.57 C 1069.05 1052.84 1066.33 1038.79 1057.58 1029.75 C 1039.8 1011.38 990.321 1015.79 964.489 1015.88 C 965.745 1089.8 964.312 1166.52 964.492 1240.76 L 964.507 1242.16 C 964.73 1259.25 966.584 1273.55 986.412 1278.93 C 989.774 1279.84 993.076 1279.43 995.386 1281.68 L 995.16 1282.63 C 985.342 1287.36 932.581 1282.24 917.243 1284.43 C 912.216 1285.15 893.589 1284.43 888.134 1283.48 C 906.92 1273.75 923.182 1281.17 924.771 1249.84 C 926.134 1222.96 925.372 1195.92 925.317 1169 L 925.204 1015.94 C 898.083 1015.84 872.381 1013.72 845.641 1020.81 C 826.486 1025.89 820.165 1055.36 815.2 1057.9 L 813.999 1056.92 C 813.251 1049.53 817.139 1005.91 818.158 996.572 z"/>
<path transform="translate(0,0)" fill="url(#Gradient10)" d="M 143.334 998.299 C 154.106 997.746 254.372 997.659 256.386 998.921 C 256.614 1006.11 224.361 1000.71 221.84 1028.45 C 220.516 1043.02 220.594 1063.71 220.63 1078.71 L 220.663 1148.75 C 220.728 1168.41 220.688 1188.07 220.542 1207.74 C 220.46 1225.02 214.327 1268.66 238.986 1267.68 C 276.475 1266.19 324.724 1277.49 350.375 1241.84 C 353.434 1237.59 361.455 1221.29 365.577 1220.76 C 366.759 1224.73 365.674 1226.2 364.688 1230.72 C 360.34 1246.67 356.154 1267.86 352.421 1284.34 L 205.941 1284.22 C 197.794 1284.23 152.25 1285.34 147.475 1283.71 L 147.381 1282.06 C 150.189 1279.64 156.282 1278.71 159.923 1277.59 C 173.977 1273.27 177.892 1265.83 179.496 1251.99 C 180.726 1241.36 180.896 1231.73 180.831 1220.91 C 180.474 1161.21 181.128 1101.46 180.595 1041.77 C 180.388 995.185 147.9 1010.5 143.334 998.299 z"/>
<path transform="translate(0,0)" fill="rgb(9,38,73)" d="M 588.945 1077.41 C 613.273 1076.69 651.87 1076.32 675.835 1077.55 C 668.054 1081.1 657.35 1080.79 653.773 1089.02 C 653.543 1101.53 687.587 1149.48 696.413 1162.96 C 708.764 1145.05 721.567 1127.24 733.589 1109.13 C 749.343 1085.4 737.599 1083.21 716.724 1078.29 C 723.066 1077.1 782.301 1076.46 788.767 1077.45 L 789.718 1078.97 C 786.467 1081.91 773.262 1082.17 763.311 1091.78 C 751.205 1103.47 744.116 1114.39 734.372 1127.87 L 702.282 1172.37 C 715.193 1191.84 756.551 1259.4 771.895 1270.99 C 779.663 1276.85 789.124 1279.12 798.287 1281.88 C 793.362 1282.59 788.479 1282.53 783.5 1282.63 C 759.262 1282.56 733.615 1283.08 709.552 1282.18 C 717.31 1279.28 726.273 1279.02 729.844 1270.57 C 730.194 1258.59 692.548 1204.85 683.807 1191.42 L 655.854 1231.35 C 648.961 1241.22 641.534 1250.72 636.547 1261.73 C 629.575 1277.11 645.69 1278.62 656.394 1282.09 C 642.059 1283.34 595.686 1282.88 580.996 1282.13 C 589.838 1279.31 599.738 1276.98 607.44 1271.63 C 625.162 1259.3 662.219 1202.85 677.444 1181.65 C 664.481 1161.99 651.419 1142.18 638.227 1122.7 C 621.325 1097.74 618.82 1089.48 589.74 1079.72 L 588.945 1077.41 z"/>
<path transform="translate(0,0)" fill="rgb(9,38,73)" d="M 400.953 1077.45 C 447.622 1076.18 498.407 1077.15 545.471 1077.12 C 545.857 1093.68 547.259 1109.34 547.005 1126.06 C 542.752 1117.96 539.671 1104.38 532.72 1098.47 C 515.146 1083.5 475.65 1088.3 453.954 1088.51 L 453.827 1172.01 C 462.375 1171.85 472.01 1171.91 480.514 1172.11 C 508.819 1172.78 516.512 1173.99 525.682 1145.84 C 527.057 1158.08 526.802 1198.01 525.801 1210.54 C 514.569 1173.55 502.134 1183.63 468.78 1182.51 C 463.911 1182.35 458.778 1182.62 453.887 1182.67 L 453.893 1212.25 C 453.815 1221.02 451.387 1263.2 458.177 1268.03 C 467.552 1274.68 501.341 1271.71 513.865 1270.8 C 543.38 1268.66 547.724 1250.58 562.714 1231.25 C 560.796 1245.6 554.68 1267.86 551.022 1282.57 L 455.366 1282.62 C 436.408 1282.64 415.283 1283.05 396.487 1282.03 C 401.646 1280.36 407.259 1279.33 412.192 1277.07 C 416.627 1275.03 421.043 1271.14 422.54 1266.36 C 426.474 1253.8 427.276 1100.78 422.226 1091.67 C 418.336 1084.64 408.809 1081.89 401.751 1079.55 L 400.953 1077.45 z"/>
<path transform="translate(0,0)" fill="rgb(9,38,73)" d="M 1083 1077.43 C 1126.3 1075.64 1180.76 1077.14 1224.78 1077.07 C 1224.73 1093.42 1226.25 1109.43 1226.14 1126.04 C 1222.11 1117.6 1218.46 1105.12 1212.35 1098.62 C 1198.66 1084.03 1156.47 1088.3 1136.07 1088.62 C 1135.3 1115.68 1135.8 1144.73 1135.79 1171.95 C 1144.01 1171.8 1153.79 1171.85 1161.98 1172.14 C 1189.96 1173.12 1196.75 1172.82 1205.74 1145.66 C 1206.84 1161.44 1206.58 1194.68 1205.67 1210.55 C 1204.52 1207.2 1203.57 1203.76 1202.54 1200.43 C 1195.78 1178.56 1176.98 1182.31 1159.17 1182.49 C 1151.22 1182.57 1143.54 1182.62 1135.84 1182.68 L 1135.81 1212.5 C 1135.67 1227.95 1135.14 1243.48 1136.25 1258.89 C 1137.28 1273.02 1151.06 1271.75 1161.88 1271.92 C 1174.32 1272.11 1187.51 1272.09 1199.77 1269.91 C 1222.92 1266.49 1230.17 1248.33 1241.78 1231.09 C 1239.61 1247 1234.41 1266.96 1230.39 1282.67 C 1181.26 1282.53 1128.18 1283.73 1079.55 1282.26 C 1084.42 1280.44 1089.66 1279.28 1094.39 1277.13 C 1098.55 1275.24 1102.71 1272.42 1104.35 1267.97 C 1106.57 1261.91 1107.11 1254.76 1107.51 1248.38 C 1108.7 1229.4 1109.73 1102.17 1104.83 1092.55 C 1100.8 1084.65 1091.5 1082.04 1083.75 1079.5 L 1083 1077.43 z"/>
<path transform="translate(0,0)" fill="url(#Gradient9)" d="M 1490.94 1274.05 C 1470.3 1253.46 1469.54 1220.27 1489.21 1198.75 C 1508.88 1177.23 1542.01 1175.02 1564.37 1193.74 C 1586.73 1212.45 1590.38 1245.45 1572.67 1268.6 C 1563.13 1281.06 1548.69 1288.8 1533.04 1289.85 C 1517.38 1290.89 1502.04 1285.14 1490.94 1274.05 z"/>
<path transform="translate(0,0)" fill="rgb(206,156,55)" d="M 1539.85 1229.3 C 1543.28 1234.2 1555.5 1250.95 1557.63 1255.32 L 1558.25 1257.04 C 1561.99 1257.89 1562.14 1257.97 1565.74 1256.92 C 1568.28 1253.98 1567.49 1255.01 1567.94 1250.4 C 1571.48 1252.94 1572.57 1253.55 1575.07 1257.06 C 1575.96 1263.35 1572.04 1263.71 1572.67 1268.6 C 1563.13 1281.06 1548.69 1288.8 1533.04 1289.85 C 1517.38 1290.89 1502.04 1285.14 1490.94 1274.05 C 1496.01 1272.22 1496.67 1270.7 1497.29 1265.85 C 1494.68 1269.15 1495.54 1269.04 1492.14 1270.43 C 1487.8 1269.34 1483.53 1263.22 1484.49 1259.05 C 1490.31 1254.15 1496.62 1259.31 1502.48 1256.47 C 1505.13 1251.24 1501.1 1244.83 1504.59 1241.38 C 1508.55 1241.12 1510.65 1241.39 1514.09 1239.15 L 1517.51 1239.17 C 1522.17 1245.29 1514.62 1251.63 1521.81 1255.17 L 1526.64 1254.77 C 1527.96 1254.78 1530.84 1254.7 1532.01 1254.84 C 1536.69 1254.9 1536.17 1255.68 1539.02 1253.43 C 1541.71 1245.34 1539.58 1238.21 1539.85 1229.3 z"/>
<path transform="translate(0,0)" fill="rgb(9,38,73)" d="M 1558.02 1241.93 C 1557.99 1236.52 1557.02 1220.36 1559.25 1216.89 C 1562.78 1215.74 1561.03 1215.83 1564.71 1216.69 C 1566.3 1218.94 1566.34 1252.48 1565.1 1254.75 C 1561.68 1255.38 1561.11 1255.42 1557.63 1255.32 C 1555.5 1250.95 1543.28 1234.2 1539.85 1229.3 C 1539.58 1238.21 1541.71 1245.34 1539.02 1253.43 C 1536.17 1255.68 1536.69 1254.9 1532.01 1254.84 C 1531.92 1247.49 1530.33 1223.79 1534.2 1217.09 C 1534.82 1216.04 1535.67 1216.42 1537.16 1216.45 C 1544.03 1220.24 1552.67 1234.94 1558.02 1241.93 z"/>
<path transform="translate(0,0)" fill="rgb(9,38,73)" d="M 1518.81 1231.8 C 1518.77 1226.86 1518.25 1221.23 1519.89 1216.74 L 1522.37 1215.82 C 1529.8 1219.22 1526.79 1246.53 1526.64 1254.77 L 1521.81 1255.17 C 1514.62 1251.63 1522.17 1245.29 1517.51 1239.17 L 1514.09 1239.15 C 1510.16 1238.89 1506.6 1238.05 1503.58 1240.13 C 1498.69 1247.08 1503.7 1250.06 1500.04 1254.88 C 1497.14 1255.22 1497.04 1255.43 1494.28 1254.27 C 1493.34 1246.24 1492.59 1223.94 1495.85 1216.9 L 1497.53 1215.54 C 1500.5 1216.24 1499.24 1215.53 1501.34 1217.91 C 1501.95 1222.88 1501.87 1227.03 1501.88 1232.02 L 1518.81 1231.8 z"/>
<path transform="translate(0,0)" fill="rgb(9,38,73)" d="M 1370.29 1075.42 C 1397.03 1073.69 1421.61 1080.61 1445.16 1092.74 C 1445.36 1108.72 1445.27 1124.71 1444.89 1140.69 C 1439.8 1129.79 1437.97 1121.01 1430.17 1110.9 C 1401.41 1073.6 1337 1078.81 1313.02 1119.24 C 1273.23 1186.32 1313.86 1294.63 1404.09 1271.41 C 1433.92 1259.9 1434.85 1250.72 1451.34 1226.85 C 1450.74 1236.29 1444.23 1258.68 1441.52 1268.94 C 1422.02 1278.71 1410.99 1282.79 1388.29 1285.47 C 1287.96 1297.31 1231.98 1189.21 1292.77 1111.65 C 1310.55 1088.96 1340.92 1077.55 1370.29 1075.42 z"/>
<path transform="translate(0,0)" fill="rgb(9,38,73)" d="M 507.236 1375.07 C 533.813 1372.32 557.549 1391.73 560.131 1418.32 C 562.714 1444.92 543.157 1468.53 516.547 1470.95 C 490.169 1473.35 466.804 1454 464.244 1427.64 C 461.684 1401.27 480.889 1377.79 507.236 1375.07 z"/>
<path transform="translate(0,0)" fill="rgb(253,252,252)" d="M 510.749 1380.38 C 530.747 1381.66 542.341 1395.75 544.95 1414.85 C 548.087 1437.81 542.104 1462.13 515.344 1465.54 C 468.871 1462.67 464.095 1386.13 510.749 1380.38 z"/>
<path transform="translate(0,0)" fill="url(#Gradient8)" d="M 928.545 769.182 L 1040.48 769.088 C 1050.1 769.062 1087.92 768.37 1095.5 769.635 C 1093.94 773.875 1092.61 777.774 1090.62 781.842 C 1078.52 801.393 1065.52 814.451 1043.45 822.634 C 1021.28 830.876 996.752 829.972 975.252 820.122 C 952.677 809.616 937.113 792.466 928.545 769.182 z"/>
<path transform="translate(0,0)" fill="rgb(221,171,68)" d="M 1078.21 769.968 C 1083.98 769.993 1089.74 769.882 1095.5 769.635 C 1093.94 773.875 1092.61 777.774 1090.62 781.842 C 1087.98 778.931 1081.49 773.233 1078.21 769.968 z"/>
<path transform="translate(0,0)" fill="url(#Gradient7)" d="M 574.738 769.097 C 617.385 769.097 665.066 768.029 707.393 769.155 C 696.387 793.328 680.019 813.028 654.484 822.563 C 632.052 830.865 607.235 829.879 585.532 819.823 C 574.193 814.508 563.378 806.606 555.269 797.027 C 547.485 788.042 543.623 780.19 539.574 769.191 L 574.738 769.097 z"/>
<path transform="translate(0,0)" fill="url(#Gradient6)" d="M 539.574 769.191 L 574.738 769.097 C 567.5 772.328 561.88 778.354 559.161 785.799 C 557.424 790.421 558.351 793.725 555.269 797.027 C 547.485 788.042 543.623 780.19 539.574 769.191 z"/>
<path transform="translate(0,0)" fill="url(#Gradient5)" d="M 804.756 591.159 C 813.734 591.556 822.848 591.272 831.842 591.126 C 830.718 678.61 830.457 766.102 831.058 853.591 C 822.68 853.958 813.333 853.803 804.876 853.845 L 804.756 591.159 z"/>
<path transform="translate(0,0)" fill="rgb(221,171,68)" d="M 1011.5 584.305 C 962.645 589.267 940.353 571.491 894.434 565.071 C 880.261 563.624 863.414 564.257 851.084 572.091 C 842.258 577.7 838.851 587.108 827.816 585.933 L 826.926 584.486 C 825.992 547.291 839.897 530.569 880.012 532.085 C 892.767 532.567 903.998 536.651 915.684 541.736 C 945.902 554.301 955.181 563.96 989.77 570.526 C 997.124 571.324 1012.17 572.991 1018.53 568.317 C 1023.3 564.809 1025.13 556.971 1033.22 557.694 C 1041.82 562.446 1037.56 571.911 1031.06 576.379 C 1025.63 580.393 1022.26 581.732 1015.61 583.595 C 1014.32 592.636 1033.61 628.499 1036.67 640.953 C 1036.75 643.477 1036.78 646.001 1036.78 648.526 L 1035.39 649.106 C 1034.25 648.135 1033.1 647.184 1032 646.176 C 1025.31 630.48 1018.87 614.677 1012.69 598.773 C 1006.24 615.481 998.663 632.458 991.755 649.05 C 984.234 667.112 976.934 686.209 968.802 703.923 C 968.118 702.66 966.262 697.702 965.235 695.564 C 966.68 689.974 977.087 665.891 979.99 658.976 L 1011.5 584.305 z"/>
<path transform="translate(0,0)" fill="rgb(206,156,55)" d="M 915.684 541.736 C 945.902 554.301 955.181 563.96 989.77 570.526 C 988.684 575.784 985.048 578.011 979.879 577.853 C 970.979 577.58 976.791 569.544 970.523 567.563 C 960.054 564.254 921.375 549.423 915.684 541.736 z"/>
<path transform="translate(0,0)" fill="rgb(206,156,55)" d="M 1015.61 583.595 L 1016.23 582.45 C 1016.01 579.96 1015.87 580.706 1016.41 578.358 C 1021.45 573.144 1024.24 572.241 1031.06 576.379 C 1025.63 580.393 1022.26 581.732 1015.61 583.595 z"/>
<path transform="translate(0,0)" fill="rgb(221,171,68)" d="M 616.031 568.872 C 632.835 572.137 644.365 571.785 661.14 567.373 C 701.414 556.783 735.875 523.115 779.953 534.038 C 804.695 540.17 811.24 560.993 808.143 584.101 C 808.001 585.16 807.623 585.939 807.212 586.903 C 801.688 588.723 792.683 576.775 786.611 573.27 C 750.25 552.279 711.715 574.97 675.212 581.039 L 675.116 580.362 C 672.942 578.74 653.642 583.223 649.611 583.497 C 641.398 584.054 617.876 582.801 612.093 578.126 L 609.597 579.674 C 599.335 575.598 593.48 568.606 599.64 558.141 C 603.619 557.296 604.264 556.831 607.714 558.458 C 611.884 563.125 611.65 565.892 616.031 568.872 z"/>
<path transform="translate(0,0)" fill="rgb(206,156,55)" d="M 599.64 558.141 C 603.619 557.296 604.264 556.831 607.714 558.458 C 611.884 563.125 611.65 565.892 616.031 568.872 C 615.981 570.741 616.182 569.81 615.34 571.644 L 613.194 571.627 C 608.307 568.736 603.101 562.646 599.64 558.141 z"/>
<path transform="translate(0,0)" fill="url(#Gradient4)" d="M 780.958 881.035 C 781.558 846.797 860.831 852.729 855.037 881.849 C 854.494 884.508 854.444 883.094 856.263 886.133 C 865.208 885.919 881.575 883.777 883.767 898.039 C 884.01 899.627 882.79 900.463 881.732 901.831 C 874.166 905.996 846.437 904.219 836.529 904.109 L 782.545 904.008 C 775.613 904.075 759.963 904.828 754.363 903.244 C 748.196 897.575 755.661 887.518 763.549 886.922 C 768.399 885.88 773.977 886.136 778.986 886.129 C 780.91 883.975 780.328 884.35 780.958 881.035 z"/>
<path transform="translate(0,0)" fill="rgb(208,158,54)" d="M 778.986 886.129 L 798.291 886.329 C 805.279 890.941 828.747 882.231 835.782 893.21 C 836.416 894.2 837.49 900.187 838.524 902.56 L 836.529 904.109 L 782.545 904.008 C 775.613 904.075 759.963 904.828 754.363 903.244 C 748.196 897.575 755.661 887.518 763.549 886.922 C 768.399 885.88 773.977 886.136 778.986 886.129 z"/>
<path transform="translate(0,0)" fill="rgb(206,156,55)" d="M 782.545 904.008 C 775.613 904.075 759.963 904.828 754.363 903.244 C 748.196 897.575 755.661 887.518 763.549 886.922 C 776.817 887.611 784.126 888.196 784.555 902.533 L 782.545 904.008 z"/>
<path transform="translate(0,0)" fill="rgb(221,171,68)" d="M 856.263 886.133 C 865.208 885.919 881.575 883.777 883.767 898.039 C 884.01 899.627 882.79 900.463 881.732 901.831 C 874.166 905.996 846.437 904.219 836.529 904.109 L 838.524 902.56 C 837.49 900.187 836.416 894.2 835.782 893.21 C 828.747 882.231 805.279 890.941 798.291 886.329 C 816.28 886.174 838.899 886.872 856.263 886.133 z"/>
<path transform="translate(0,0)" fill="rgb(254,250,233)" d="M 780.958 881.035 C 801.928 882.919 837.809 879.569 855.037 881.849 C 854.494 884.508 854.444 883.094 856.263 886.133 C 838.899 886.872 816.28 886.174 798.291 886.329 L 778.986 886.129 C 780.91 883.975 780.328 884.35 780.958 881.035 z"/>
<path transform="translate(0,0)" fill="url(#Gradient3)" d="M 804.389 908.837 C 834.165 908.802 863.944 908.765 893.719 908.857 C 910.913 908.91 909.681 912.84 909.109 928.465 L 794.455 928.595 C 772.734 928.6 748.45 929.123 727.036 928.174 C 726.842 922.527 725.908 915.504 728.985 910.88 C 736.752 907.443 769.68 908.896 780.315 909.106 C 788.337 908.877 796.363 908.787 804.389 908.837 z"/>
<path transform="translate(0,0)" fill="rgb(221,171,68)" d="M 780.315 909.106 C 788.337 908.877 796.363 908.787 804.389 908.837 C 804.98 912.267 805.077 913.229 802.874 915.792 C 793.021 917.569 791.636 909.043 782.913 910.161 C 781.317 910.365 782.212 910.427 780.315 909.106 z"/>
<path transform="translate(0,0)" fill="rgb(9,38,73)" d="M 382.493 1341.38 C 400.926 1339.55 416.441 1344.14 432.992 1351.61 L 433.068 1383.23 C 424.71 1358.33 407.576 1342.71 380.56 1347.77 C 315.922 1359.86 328.367 1475.63 403.249 1462.68 C 421.31 1458.3 428.753 1446.49 437.323 1431.46 C 435.953 1440.26 432.805 1451.85 430.62 1460.78 C 420.802 1465.55 410.299 1468.75 399.493 1470.28 C 380.081 1472.87 359.905 1469.5 344.205 1457.23 C 331.135 1446.95 322.783 1431.82 321.053 1415.28 C 316.527 1375.16 343.004 1345.33 382.493 1341.38 z"/>
<path transform="translate(0,0)" fill="rgb(9,38,73)" d="M 1230.86 1445.91 C 1231 1428.22 1232.23 1403.53 1229.76 1385.98 C 1229.19 1381.95 1224.24 1380.33 1220.53 1378.34 C 1221.92 1376.26 1242.68 1376.57 1245.07 1377.99 C 1243.39 1379.72 1237.9 1385.49 1237.82 1387.84 C 1237.03 1412.72 1238.12 1438.26 1237.71 1463.25 C 1237.65 1467.37 1238.14 1468.14 1235.99 1470.14 L 1233.52 1469.39 C 1212.26 1445.05 1190.41 1418.05 1169.21 1393.18 C 1169.13 1411.36 1167.63 1442.93 1170.93 1461.08 C 1171.61 1464.83 1179.11 1467.29 1182.8 1468.79 C 1178.2 1468.8 1156.25 1469.41 1153.66 1467.97 C 1157.05 1465.43 1158.28 1464.59 1161.12 1461.52 C 1164.14 1450.12 1163.2 1401.74 1162.07 1387.52 C 1161.66 1382.4 1154.83 1379.97 1150.56 1377.41 C 1156.34 1376.8 1166.47 1377.07 1172.59 1377.05 C 1189.54 1398.84 1212.65 1424.64 1230.86 1445.91 z"/>
<path transform="translate(0,0)" fill="rgb(9,38,73)" d="M 584.298 1377.38 C 588.542 1376.82 600.76 1377.05 605.592 1377.02 C 623.799 1396.72 646.435 1425.34 664.38 1446.43 C 664.053 1431.8 667.309 1389.11 659.418 1380.68 C 657.294 1380 655.373 1379.74 654.092 1378.05 L 655.179 1377.09 C 659.642 1377.08 676.831 1376.53 679.824 1377.87 C 677.966 1379.53 672.033 1384.16 671.824 1386.07 C 669.573 1406.7 671.552 1430.09 671.049 1451.04 C 670.904 1457.06 671.65 1464.79 670.359 1469.47 L 668.466 1470.12 L 665.947 1468.4 C 645.624 1443.45 623.695 1417.95 602.885 1393.35 C 603.164 1412.4 601.106 1441.92 604.442 1460.88 C 605.126 1464.77 612.498 1467.16 616.273 1468.69 L 583.582 1468.71 C 601.014 1461.56 595.82 1453.01 596.618 1435.25 C 597.33 1419.41 596.935 1402 595.522 1386.32 C 595.2 1382.75 587.218 1379.57 584.298 1377.38 z"/>
<path transform="translate(0,0)" fill="rgb(9,38,73)" d="M 1320.84 1375.41 C 1333.6 1374.94 1343.25 1377.72 1354.9 1382.28 L 1354.96 1406.43 C 1346.17 1384.73 1332.43 1374.66 1308.26 1382.82 C 1276.56 1393.53 1279.86 1451.92 1310.39 1462.76 C 1322.67 1467.12 1331.57 1465.62 1343.31 1460.64 C 1344.07 1454.07 1343.85 1442.35 1343.22 1435.87 C 1339.74 1430.79 1334.3 1430 1328.7 1428.04 C 1333.07 1428.03 1362.18 1427.45 1364.04 1429.04 C 1360.57 1431.27 1359.68 1431.95 1356.74 1434.84 C 1354.87 1440.39 1355.85 1456.58 1355.99 1463.26 C 1335.11 1470.26 1304.74 1476.4 1288.08 1459.84 C 1253.38 1425.36 1275 1379.52 1320.84 1375.41 z"/>
<path transform="translate(0,0)" fill="rgb(9,38,73)" d="M 791.54 1377.38 C 797.427 1376.81 818.636 1376.78 824.07 1377.42 L 824.354 1378.6 C 816.545 1381.38 813.808 1385.18 814.767 1393.88 C 817.446 1418.15 804.3 1465.59 843.011 1463.86 C 879.34 1462.22 865.524 1416.16 868.347 1392.65 C 869.488 1383.15 863.398 1382.22 858.257 1377.62 C 860.52 1376.78 868.056 1377.07 870.893 1377.06 C 874.208 1377.03 881.876 1376.59 884.317 1377.99 C 883.02 1378.71 877.098 1382.5 876.908 1383.06 C 869.798 1405.22 880.821 1434.48 869.387 1455.9 C 860.125 1473.24 830.166 1474.45 815.207 1464.49 C 792.617 1449.45 806.789 1409.66 801.825 1387.07 C 800.413 1380.64 796.719 1380.48 791.54 1377.38 z"/>
<path transform="translate(0,0)" fill="rgb(9,38,73)" d="M 450.455 1557.12 C 459.153 1554.72 468.473 1557.21 474.807 1563.64 C 481.141 1570.07 483.495 1579.42 480.956 1588.08 C 478.418 1596.75 471.387 1603.35 462.584 1605.34 C 449.413 1608.33 436.27 1600.25 432.975 1587.16 C 429.681 1574.06 437.44 1560.73 450.455 1557.12 z"/>
<path transform="translate(0,0)" fill="rgb(253,252,252)" d="M 455.299 1559.1 C 478.24 1562.66 480.255 1596.52 458.819 1602.98 C 437.273 1599.82 432.972 1566.38 455.299 1559.1 z"/>
<path transform="translate(0,0)" fill="rgb(9,38,73)" d="M 1179.34 1557.14 C 1187.96 1554.83 1197.17 1557.34 1203.43 1563.71 C 1209.69 1570.08 1212.04 1579.32 1209.58 1587.91 C 1207.12 1596.49 1200.24 1603.09 1191.55 1605.18 C 1178.36 1608.36 1165.07 1600.34 1161.73 1587.19 C 1158.38 1574.04 1166.23 1560.65 1179.34 1557.14 z"/>
<path transform="translate(0,0)" fill="rgb(253,252,252)" d="M 1183.32 1559.04 C 1205.69 1561.16 1208.93 1594.76 1189.01 1602.67 C 1180.44 1602.11 1175.46 1599.36 1171.71 1591.16 C 1168.77 1584.68 1168.5 1577.3 1170.97 1570.63 C 1173.69 1563.47 1176.93 1561.71 1183.32 1559.04 z"/>
<path transform="translate(0,0)" fill="rgb(9,38,73)" d="M 738.15 1375.37 C 748.214 1375.67 752.078 1376.57 761.643 1379.83 L 761.896 1401.41 C 759.834 1396.8 757.563 1389.67 753.287 1386.37 C 726.07 1365.34 707.933 1401.65 740.541 1413.92 C 752.513 1419.84 768.384 1427.85 767.154 1443.54 C 765.551 1463.97 750.412 1470.98 732.042 1470.45 C 724.014 1469.79 718.521 1467.86 711.092 1465 C 710.356 1456.16 709.733 1447.31 709.224 1438.46 C 712.761 1447.28 714.042 1452.04 721.533 1459.25 C 735.285 1472.49 759.858 1465.02 755.139 1444.01 C 751.336 1432.55 735.442 1427.58 726.05 1421.45 C 711.576 1412.01 706.952 1400.18 717.32 1384.98 C 722.144 1377.91 730.098 1376.45 738.15 1375.37 z"/>
<path transform="translate(0,0)" fill="rgb(9,38,73)" d="M 991.269 1376.79 C 1015.01 1377.77 1044.3 1377.38 1068.2 1376.83 L 1069.93 1403.39 C 1061.88 1381.27 1057.68 1382.68 1035.7 1382.83 C 1035.49 1407.96 1035.57 1433.09 1035.95 1458.22 C 1037.43 1464.39 1040.39 1464.93 1045.61 1468.07 L 1044.58 1468.65 L 1044.89 1467.61 L 1043.74 1466.94 L 1042.04 1468.75 L 1009.69 1468.69 C 1012.88 1467.47 1018.03 1466.13 1020.42 1463.59 C 1025.97 1457.67 1023.12 1394.77 1023.06 1382.9 C 1001.41 1382.65 997.607 1381.77 989.201 1402.21 C 989.532 1393.87 990.494 1385.13 991.269 1376.79 z"/>
<path transform="translate(0,0)" fill="rgb(9,38,73)" d="M 793.397 1557.61 C 811.071 1557.41 839.671 1553.92 840.088 1579.55 C 840.24 1588.94 836.987 1593.68 830.758 1600.03 C 824.541 1603.58 797.235 1608.45 794.019 1603.37 L 797.662 1599.8 C 799.288 1590.43 798.875 1575.16 798.252 1565.46 C 797.937 1560.55 796.595 1560.25 793.397 1557.61 z"/>
<path transform="translate(0,0)" fill="rgb(253,252,252)" d="M 806.219 1560.2 C 830.785 1559.22 839 1578.78 825.627 1597.44 C 798.82 1615.75 805.787 1574.7 806.219 1560.2 z"/>
<path transform="translate(0,0)" fill="rgb(221,171,68)" d="M 816.124 507.228 C 821.679 507.515 828.822 508.999 832.604 513.496 C 844.254 527.348 827.058 546.728 824.191 560.29 C 822.816 566.797 823.084 579.525 822.888 586.301 C 818.832 586.42 817.447 586.706 813.659 585.552 C 812.294 582.152 813.21 562.695 811.809 557.865 C 809.318 549.422 803.974 542.1 801.377 533.639 C 797.246 520.175 802.205 510.449 816.124 507.228 z"/>
<path transform="translate(0,0)" fill="rgb(9,38,73)" d="M 909.401 1377.36 C 916.816 1376.74 934.203 1376.81 941.599 1377.34 L 941.99 1378.28 C 940.782 1378.82 939.587 1379.4 938.406 1380 C 936.292 1381.09 933.467 1383.23 933.501 1385.67 C 933.649 1396.27 930.847 1454.89 934.554 1461.01 C 939.055 1464.54 963.352 1463.93 967.959 1459.68 C 970.659 1457.19 975.113 1450.29 977.936 1446.96 L 978.923 1447.66 L 978.558 1451.32 L 974.302 1468.63 L 908.158 1468.62 C 909.709 1467.95 917.779 1464.49 918.149 1462.76 C 922.733 1441.34 920.698 1407.33 919.12 1385.08 C 918.876 1381.64 911.437 1378.4 909.401 1377.36 z"/>
<path transform="translate(0,0)" fill="url(#Gradient2)" d="M 811.999 457.916 C 817.626 456.161 823.726 456.78 828.885 459.631 C 834.044 462.482 837.815 467.317 839.323 473.015 C 842.345 484.433 835.639 496.162 824.266 499.35 C 812.893 502.537 801.068 496.003 797.715 484.678 C 794.362 473.352 800.724 461.433 811.999 457.916 z"/>
<path transform="translate(0,0)" fill="rgb(206,156,55)" d="M 811.999 457.916 C 817.626 456.161 823.726 456.78 828.885 459.631 C 834.044 462.482 837.815 467.317 839.323 473.015 C 829.312 476.43 827.128 484.551 820.555 470.735 C 818.146 465.67 817.208 460.632 811.999 457.916 z"/>
<path transform="translate(0,0)" fill="rgb(9,38,73)" d="M 1092.19 1377.39 C 1097.58 1376.7 1118.33 1376.93 1123.89 1377.47 L 1123.7 1378.63 C 1121.03 1379.74 1118.17 1380.74 1116.64 1383.39 C 1113.55 1388.74 1113.82 1454.19 1116.13 1461.19 C 1116.98 1463.78 1118.3 1464.56 1120.67 1465.57 C 1122.08 1466.18 1123.22 1466.61 1124.36 1467.68 C 1124.66 1467.96 1124.95 1468.26 1125.24 1468.55 C 1116.5 1468.7 1102.35 1469.29 1094.08 1468.47 L 1093.59 1467.33 C 1096.29 1466.11 1099.26 1464.96 1100.89 1462.34 C 1104.07 1457.19 1103.34 1391.88 1101.16 1384.61 C 1100.42 1382.14 1098.91 1381.17 1096.75 1380 C 1095.21 1379.16 1093.71 1378.26 1092.19 1377.39 z"/>
<path transform="translate(0,0)" fill="rgb(208,158,54)" d="M 609.597 579.674 L 612.093 578.126 C 617.876 582.801 641.398 584.054 649.611 583.497 C 653.642 583.223 672.942 578.74 675.116 580.362 L 675.212 581.039 C 659.354 585.215 641.167 585.905 624.763 584.546 C 633.986 611.751 651.491 648.741 662.77 676.613 C 659.654 680.116 659.813 681.716 659.376 686.344 C 648.285 662.616 632.983 623.552 623.294 598.582 C 613.291 623.524 603.063 648.375 592.611 673.131 C 592.481 670.281 592.383 669.361 593.488 666.193 C 596.727 656.912 598.26 646.82 601.618 637.528 C 601.33 636.749 601.041 635.97 600.753 635.192 C 604.957 621.149 615.84 601.122 621.141 584.262 C 616.987 582.861 613.594 581.393 609.597 579.674 z"/>
<path transform="translate(0,0)" fill="rgb(9,38,73)" d="M 512.439 1583.23 C 512.123 1587.76 511.696 1593.13 512.1 1597.66 C 512.42 1601.25 514.233 1601.68 517.032 1603.66 L 516.778 1604.51 C 510.536 1604.8 506.706 1604.79 500.469 1604.43 L 499.973 1603.46 L 502.873 1601.33 C 506.599 1594.86 506.286 1566.61 501.618 1559.37 C 500.296 1557.31 500.857 1559.78 500.672 1557.4 C 504.803 1557.24 508.655 1557.46 512.774 1557.64 C 515.997 1557.79 519.684 1557.86 522.852 1558.19 C 538.827 1559.66 538.67 1575.44 525.143 1582.7 C 530.046 1590.01 534.72 1598.6 541.947 1603.3 L 541.48 1604.38 C 520.672 1606.99 527.732 1585.85 512.439 1583.23 z"/>
<path transform="translate(0,0)" fill="rgb(9,38,73)" d="M 512.439 1583.23 C 512.123 1587.76 511.696 1593.13 512.1 1597.66 C 512.42 1601.25 514.233 1601.68 517.032 1603.66 L 516.778 1604.51 C 510.536 1604.8 506.706 1604.79 500.469 1604.43 L 499.973 1603.46 L 502.873 1601.33 C 506.599 1594.86 506.286 1566.61 501.618 1559.37 C 500.296 1557.31 500.857 1559.78 500.672 1557.4 C 504.803 1557.24 508.655 1557.46 512.774 1557.64 C 515.997 1557.79 519.684 1557.86 522.852 1558.19 L 518.928 1560.52 L 511.793 1560.06 C 512.037 1565.6 511.394 1578.02 513.212 1581.86 L 512.439 1583.23 z"/>
<path transform="translate(0,0)" fill="rgb(10,19,51)" d="M 512.774 1557.64 C 515.997 1557.79 519.684 1557.86 522.852 1558.19 L 518.928 1560.52 L 511.793 1560.06 L 510.93 1558.69 L 512.774 1557.64 z"/>
<path transform="translate(0,0)" fill="rgb(253,252,252)" d="M 511.793 1560.06 L 518.928 1560.52 C 531.722 1563.79 529.732 1579.84 513.212 1581.86 C 511.394 1578.02 512.037 1565.6 511.793 1560.06 z"/>
<path transform="translate(0,0)" fill="rgb(253,252,252)" d="M 1070.82 1584.07 C 1068.64 1590.52 1068.29 1599.42 1074.85 1603.35 L 1074.92 1604.49 C 1072.14 1605 1060.5 1605.14 1058.08 1604 C 1065.31 1596.15 1062.36 1595.5 1062.62 1584.92 C 1062.76 1579.01 1062.89 1572.34 1062.81 1566.37 C 1062.74 1561.34 1060.81 1561.27 1058.32 1557.63 C 1062.81 1557.23 1065.28 1557.41 1069.68 1557.69 C 1073.04 1557.8 1076.86 1557.83 1080.16 1558.06 C 1097.45 1559.73 1095.32 1581.52 1082.03 1583.81 C 1078.23 1584.29 1074.66 1584.12 1070.82 1584.07 z"/>
<path transform="translate(0,0)" fill="rgb(9,38,73)" d="M 1070.82 1584.07 C 1068.64 1590.52 1068.29 1599.42 1074.85 1603.35 L 1074.92 1604.49 C 1072.14 1605 1060.5 1605.14 1058.08 1604 C 1065.31 1596.15 1062.36 1595.5 1062.62 1584.92 C 1062.76 1579.01 1062.89 1572.34 1062.81 1566.37 C 1062.74 1561.34 1060.81 1561.27 1058.32 1557.63 C 1062.81 1557.23 1065.28 1557.41 1069.68 1557.69 C 1073.04 1557.8 1076.86 1557.83 1080.16 1558.06 L 1076.86 1560.1 L 1069.89 1559.93 C 1069.9 1565.24 1069.53 1577.39 1070.69 1581.98 L 1070.82 1584.07 z"/>
<path transform="translate(0,0)" fill="rgb(10,19,51)" d="M 1069.68 1557.69 C 1073.04 1557.8 1076.86 1557.83 1080.16 1558.06 L 1076.86 1560.1 L 1069.89 1559.93 L 1069.44 1559.37 L 1069.68 1557.69 z"/>
<path transform="translate(0,0)" fill="rgb(9,38,73)" d="M 1080.16 1558.06 C 1097.45 1559.73 1095.32 1581.52 1082.03 1583.81 L 1078.39 1581.64 C 1086.92 1576.56 1087.03 1564.27 1076.86 1560.1 L 1080.16 1558.06 z"/>
<path transform="translate(0,0)" fill="rgb(10,19,51)" d="M 1070.69 1581.98 L 1078.39 1581.64 L 1082.03 1583.81 C 1078.23 1584.29 1074.66 1584.12 1070.82 1584.07 L 1070.69 1581.98 z"/>
<path transform="translate(0,0)" fill="rgb(206,156,55)" d="M 1036.67 640.953 C 1048.35 667.153 1062.52 700.724 1072.63 727.662 C 1075.6 734.785 1086.23 756.563 1083.82 762.596 C 1082.02 762.587 1080.6 763.016 1079.58 761.459 C 1073.79 752.633 1069.47 737.988 1065.33 728.335 C 1054.63 700.892 1042.8 673.752 1032 646.176 C 1033.1 647.184 1034.25 648.135 1035.39 649.106 L 1036.78 648.526 C 1036.78 646.001 1036.75 643.477 1036.67 640.953 z"/>
<path transform="translate(0,0)" fill="rgb(206,156,55)" d="M 600.753 635.192 C 601.041 635.97 601.33 636.749 601.618 637.528 C 598.26 646.82 596.727 656.912 593.488 666.193 C 592.383 669.361 592.481 670.281 592.611 673.131 C 583.789 699.74 568.681 728.283 559.456 755.141 C 558.285 758.551 555.708 761.735 551.966 762.124 L 551.054 760.043 C 551.587 751.215 594.89 649.428 600.753 635.192 z"/>
<path transform="translate(0,0)" fill="url(#Gradient1)" d="M 239.534 1553.53 C 244.331 1565.22 255.115 1597.41 262.636 1604.44 C 258.901 1605.01 251.222 1605.69 248.078 1603.4 C 247.253 1595.98 250.165 1596.97 245.062 1588.12 L 228.785 1588.19 C 227.217 1592.36 225.112 1596.57 225.413 1600.85 C 227.298 1602.2 227.449 1602.18 228.834 1603.99 L 228.035 1604.58 C 224.734 1604.65 218.652 1605.18 215.907 1603.97 C 217.428 1601.8 219.755 1600.41 220.919 1598.28 C 224.982 1590.85 228.248 1580.94 231.447 1572.84 C 234.117 1565.5 235.884 1560.53 239.534 1553.53 z"/>
<path transform="translate(0,0)" fill="rgb(10,19,51)" d="M 231.447 1572.84 L 233.435 1576.25 C 231.951 1580.12 231.037 1580.58 231.808 1584.18 C 234.631 1585.98 240.458 1585.29 244.131 1585.21 L 245.062 1588.12 L 228.785 1588.19 C 227.217 1592.36 225.112 1596.57 225.413 1600.85 C 227.298 1602.2 227.449 1602.18 228.834 1603.99 L 228.035 1604.58 C 224.734 1604.65 218.652 1605.18 215.907 1603.97 C 217.428 1601.8 219.755 1600.41 220.919 1598.28 C 224.982 1590.85 228.248 1580.94 231.447 1572.84 z"/>
<path transform="translate(0,0)" fill="rgb(253,252,252)" d="M 233.435 1576.25 L 237.107 1567.06 C 239.251 1572.5 242.388 1579.8 244.131 1585.21 C 240.458 1585.29 234.631 1585.98 231.808 1584.18 C 231.037 1580.58 231.951 1580.12 233.435 1576.25 z"/>
<path transform="translate(0,0)" fill="rgb(9,38,73)" d="M 691.35 1564.37 C 692.651 1559.36 693.685 1557.45 695.907 1552.92 C 701.405 1566.99 706.862 1581.43 712.398 1595.51 C 713.894 1599.31 718.276 1601.98 717.429 1604.6 C 711.866 1604.89 709.038 1605.14 703.501 1604.37 L 702.639 1603.33 L 705.715 1600.46 C 705.422 1596.98 702.857 1590.13 700.74 1587.56 C 696.269 1588.39 689.834 1588.23 685.125 1588.28 C 682.252 1595.88 682.082 1595.04 682.941 1603.41 C 680.653 1605.02 676.375 1604.6 673.358 1604.64 L 672.414 1603.62 C 674.646 1601.72 677.294 1599.76 678.335 1597.06 C 682.564 1586.1 686.831 1575.22 691.35 1564.37 z"/>
<path transform="translate(0,0)" fill="rgb(10,19,51)" d="M 691.35 1564.37 L 693.126 1567.16 C 690.862 1573.37 688.727 1579.68 685.741 1585.58 C 689.09 1586.01 698.719 1586.39 700.74 1587.56 C 696.269 1588.39 689.834 1588.23 685.125 1588.28 C 682.252 1595.88 682.082 1595.04 682.941 1603.41 C 680.653 1605.02 676.375 1604.6 673.358 1604.64 L 672.414 1603.62 C 674.646 1601.72 677.294 1599.76 678.335 1597.06 C 682.564 1586.1 686.831 1575.22 691.35 1564.37 z"/>
<path transform="translate(0,0)" fill="rgb(253,252,252)" d="M 693.126 1567.16 C 696.01 1571.94 698.712 1579.65 700.819 1585.05 C 696.21 1585.08 690.139 1584.93 685.741 1585.58 C 688.727 1579.68 690.862 1573.37 693.126 1567.16 z"/>
<path transform="translate(0,0)" fill="rgb(9,38,73)" d="M 573.795 1566.87 C 575.52 1562.45 575.329 1560.91 578.677 1558.14 C 586.909 1560.72 591.716 1593.31 602.618 1603.93 L 602.04 1604.88 C 580.73 1606.67 593.309 1600.61 584.837 1587.81 C 580.572 1588.28 573.297 1588.19 568.768 1588.25 C 565.945 1595.67 567.21 1601.34 566.301 1603.76 C 562.279 1604.87 561.456 1604.71 557.187 1604.65 L 556.268 1603.63 C 564.769 1595.43 569.324 1578.74 573.795 1566.87 z"/>
<path transform="translate(0,0)" fill="rgb(10,19,51)" d="M 573.795 1566.87 L 576.767 1568.58 L 578.034 1569.02 C 580.861 1574.95 581.8 1577.21 583.62 1583.51 C 582.881 1585.16 583.413 1584.76 582.204 1585.62 C 582.864 1586.19 584.15 1587.41 584.837 1587.81 C 580.572 1588.28 573.297 1588.19 568.768 1588.25 C 565.945 1595.67 567.21 1601.34 566.301 1603.76 C 562.279 1604.87 561.456 1604.71 557.187 1604.65 L 556.268 1603.63 C 564.769 1595.43 569.324 1578.74 573.795 1566.87 z"/>
<path transform="translate(0,0)" fill="rgb(253,252,252)" d="M 576.767 1568.58 L 578.034 1569.02 C 580.861 1574.95 581.8 1577.21 583.62 1583.51 C 582.881 1585.16 583.413 1584.76 582.204 1585.62 C 577.61 1585.47 574.294 1586.43 571.663 1582.51 C 571.38 1578.64 574.951 1572.4 576.767 1568.58 z"/>
<path transform="translate(0,0)" fill="rgb(9,38,73)" d="M 1346.23 1557.23 C 1353.81 1556.35 1369.8 1555.75 1370.48 1565.76 C 1369.43 1567.99 1369.42 1569.19 1367.71 1569.93 C 1359.21 1553.16 1339.57 1557.86 1335.58 1574.48 C 1333.31 1585.1 1341.22 1602.11 1353.14 1602.92 C 1363.39 1603.62 1362.45 1593.39 1362.16 1586.93 C 1360.34 1585.87 1359.61 1585.34 1357.93 1584.06 L 1359.12 1583.1 C 1362.85 1582.96 1367.97 1582.34 1371.23 1583.65 L 1371.7 1585.56 C 1369.28 1592.54 1369.52 1594.5 1369.76 1602.01 C 1360.44 1605.01 1350.79 1607.37 1341.35 1603.22 C 1335.49 1600.7 1330.89 1595.91 1328.6 1589.95 C 1326.29 1583.98 1326.46 1577.34 1329.07 1571.49 C 1332.72 1563.41 1338.49 1560.03 1346.23 1557.23 z"/>
<path transform="translate(0,0)" fill="rgb(9,38,73)" d="M 1129.81 1558.18 C 1145.97 1559.14 1145.33 1574.95 1132.12 1582.6 C 1136.95 1590.03 1141.67 1599.09 1149.12 1603.56 L 1148.43 1604.56 C 1127.55 1606.42 1135.38 1587.72 1119.29 1582.93 L 1119.54 1581.41 C 1118.89 1576 1119.19 1566.15 1119.19 1560.39 L 1126.31 1560.19 L 1129.81 1558.18 z"/>
<path transform="translate(0,0)" fill="rgb(253,252,252)" d="M 1126.31 1560.19 C 1139.84 1565.84 1135.59 1580.7 1119.54 1581.41 C 1118.89 1576 1119.19 1566.15 1119.19 1560.39 L 1126.31 1560.19 z"/>
<path transform="translate(0,0)" fill="rgb(9,38,73)" d="M 731.535 1557.48 C 736.807 1557.57 742.081 1557.49 747.348 1557.25 C 748.155 1561.51 742.851 1561.93 743.225 1566.74 C 743.689 1573.46 741.632 1595.16 748.5 1599.07 C 772.142 1612.54 770.631 1576.26 768.523 1563.06 C 768.074 1560.24 764.769 1559.34 763.398 1558.63 L 764.222 1557.43 L 768.751 1557.34 C 771.998 1557.28 774.057 1557.05 777.197 1557.76 C 776.909 1562.03 772.7 1560.69 772.894 1565.05 C 773.849 1586.45 775.959 1613.51 743.813 1603.47 C 731.463 1599.61 738.402 1571.96 735.264 1560.78 C 733.493 1559.65 732.502 1559.3 731.535 1557.48 z"/>
<path transform="translate(0,0)" fill="rgb(206,156,55)" d="M 155.144 1408.46 L 240.788 1408.51 C 249.207 1408.51 274.038 1407.61 280.739 1409.31 L 281.245 1411.51 L 280.008 1412.84 L 275.25 1412.99 C 234.012 1413.05 192.512 1413.19 151.26 1413.01 C 146.879 1412.99 145.837 1413.43 143.555 1410.98 L 143.997 1409.76 C 147.12 1408.21 151.484 1408.54 155.144 1408.46 z"/>
<path transform="translate(0,0)" fill="rgb(206,156,55)" d="M 1410.95 1408.48 C 1422.62 1408.5 1532.7 1407.5 1535.69 1409.57 L 1535.79 1411.97 C 1533.65 1413.69 1532.81 1413.01 1529.25 1413.04 C 1511.14 1413.05 1411.12 1414.99 1400.7 1411.87 L 1400.71 1410.5 C 1404.12 1407.84 1406.5 1408.42 1410.95 1408.48 z"/>
<path transform="translate(0,0)" fill="rgb(9,38,73)" d="M 289.756 1557.03 C 294.896 1556.62 301.076 1556.1 305.538 1558.81 C 307.811 1562.8 307.072 1561.82 307.105 1567.04 L 306.234 1567.5 C 301.483 1560.65 295.661 1554.67 288.176 1562.97 C 285.272 1574.86 306.639 1578.11 309.974 1589.78 C 312.49 1598.58 303.791 1603.41 296.747 1605.77 C 290.168 1605.86 282.404 1605.49 278.899 1599.14 C 278.55 1595.55 278.747 1595.4 280.474 1592.07 L 281.631 1591.96 C 283.56 1595.94 285.067 1599.54 289.387 1601.4 C 294.495 1603.61 302.268 1601.44 304.393 1596.13 C 301.855 1583.98 261.787 1572.68 289.756 1557.03 z"/>
<path transform="translate(0,0)" fill="rgb(9,38,73)" d="M 393.784 1557.02 C 398.872 1556.66 405.151 1556.12 409.532 1558.81 C 411.77 1562.8 411.039 1561.82 411.017 1567.04 L 410.161 1567.39 C 405.573 1560.78 399.863 1555.01 392.365 1562.74 C 389.438 1574.71 411.716 1578.79 414.175 1591.04 C 415.962 1599.94 406.534 1604.05 399.481 1605.74 C 397.043 1605.69 394.61 1605.51 392.192 1605.2 C 385.134 1604.35 379.652 1595.89 385.083 1592.06 C 388.306 1596.8 388.553 1600.4 395.505 1602.24 C 398.07 1602.9 400.794 1602.5 403.056 1601.12 C 405.65 1599.52 406.394 1598.05 407.205 1595.34 C 405.476 1582.51 365.818 1573.99 393.784 1557.02 z"/>
<path transform="translate(0,0)" fill="rgb(9,38,73)" d="M 1310.53 1604.82 C 1304.5 1604.6 1280.91 1605.8 1277.86 1603.72 C 1279.11 1601.7 1279.1 1602.01 1281.03 1600.45 C 1283.12 1591.96 1281.87 1574.14 1281.92 1564.83 C 1281.94 1561.07 1280.21 1560.65 1277.39 1558.32 C 1279.83 1556.57 1285.8 1557.39 1288.74 1557.71 L 1308.98 1557.63 L 1309.32 1565.1 L 1308.42 1566.07 C 1306.34 1563.9 1304.57 1562.13 1302.34 1560.11 C 1297.97 1560.44 1293.75 1560.77 1289.36 1560.86 C 1289.32 1565.59 1289 1575.18 1289.62 1579.44 C 1292.88 1580.97 1294.52 1580.77 1298.21 1580.99 C 1295.4 1581.32 1292.77 1581.71 1289.97 1582.15 L 1289.23 1583.35 C 1289.05 1588.83 1288.12 1596.03 1291.57 1600.23 C 1295.38 1602.07 1300.55 1601.18 1305.03 1600.92 C 1307.78 1598.46 1310.58 1594.72 1312.95 1591.78 L 1310.53 1604.82 z"/>
<path transform="translate(0,0)" fill="rgb(10,19,51)" d="M 1288.74 1557.71 L 1308.98 1557.63 L 1309.32 1565.1 L 1308.42 1566.07 C 1306.34 1563.9 1304.57 1562.13 1302.34 1560.11 C 1297.93 1559.4 1291.12 1560.56 1287.69 1558.89 L 1288.74 1557.71 z"/>
<path transform="translate(0,0)" fill="rgb(9,38,73)" d="M 362.616 1604.83 C 356.929 1604.63 331.492 1606.29 329.204 1603.39 L 332.664 1600.41 C 333.996 1596.7 334.001 1569.67 333.575 1563.81 C 333.38 1561.12 331.098 1560.13 329.006 1558.6 L 329.731 1557.69 C 334.095 1557.4 335.623 1557.4 339.964 1557.86 C 344.118 1560.77 348.287 1559.54 353.46 1560.19 C 349.244 1560.27 345.631 1559.76 342.407 1562.14 C 339.426 1566.76 340.521 1573.72 341.413 1579.42 C 343.343 1580.15 344.513 1580.73 346.599 1580.92 C 343.007 1581.7 343.601 1581 341.541 1583.24 C 339.913 1588.12 340.819 1595.62 341.123 1600.99 C 353.537 1601.69 352.955 1601.75 363.023 1595.37 L 363.702 1595.94 L 362.616 1604.83 z"/>
<path transform="translate(0,0)" fill="rgb(9,38,73)" d="M 1422.41 1604.87 C 1416.83 1604.63 1392.51 1606.27 1390.14 1603.4 C 1392.62 1601.35 1394.14 1600.61 1394.3 1597.1 C 1394.51 1592.62 1395.03 1564.26 1393.93 1562.42 C 1393.29 1561.34 1390.55 1559.74 1389.54 1558.53 L 1390.34 1557.57 C 1394.27 1557.36 1395.92 1557.44 1399.84 1557.84 C 1401.63 1558.79 1403.06 1559.73 1404.98 1560.28 L 1402.43 1561.33 C 1400.9 1565.95 1401.6 1574.27 1401.73 1579.47 C 1404.67 1580.73 1405 1580.69 1408.24 1581 C 1406.92 1581.27 1403.84 1581.56 1403.14 1582.51 C 1397.64 1590.08 1401.76 1603.69 1412.63 1601.58 C 1419.31 1600.29 1421.85 1595.67 1425.14 1590.55 L 1422.41 1604.87 z"/>
<path transform="translate(0,0)" fill="rgb(9,38,73)" d="M 923.365 1560.12 C 919.848 1560.44 918.086 1560.65 914.661 1561.47 C 913.106 1568.65 913.893 1589.52 914.65 1597.58 C 915.059 1601.91 915.649 1601.4 918.857 1603.64 L 918.469 1604.57 C 915.134 1604.6 903.902 1605.21 901.801 1603.79 L 904.94 1601.08 C 906.926 1593.67 909.387 1564.82 901.893 1560.4 C 896.992 1560.69 895.285 1562.42 891.466 1565.68 L 890.651 1566.38 C 889.37 1564.05 889.858 1559.12 891.897 1557.19 C 897.749 1557.91 905.686 1557.63 912.028 1557.96 C 915.446 1560.31 919.057 1559.93 923.365 1560.12 z"/>
<path transform="translate(0,0)" fill="rgb(9,38,73)" d="M 1223.53 1557.13 C 1230.34 1557.84 1238.49 1557.46 1245.75 1558 C 1249.11 1559.78 1249.28 1559.75 1253.16 1560 L 1247.98 1561.13 C 1246.05 1564.17 1246.59 1578.12 1246.64 1582.48 C 1246.73 1589.47 1246.07 1598.86 1251.54 1603.76 L 1250.59 1604.66 C 1244.58 1604.94 1241.09 1604.95 1235.1 1604.55 C 1234.19 1602.49 1238.94 1602.2 1238.74 1597.09 C 1238.23 1584.44 1246.95 1546.35 1223.26 1566.69 C 1222.49 1563.44 1223.14 1560.49 1223.53 1557.13 z"/>
<path transform="translate(0,0)" fill="rgb(9,38,73)" d="M 856.309 1557.43 C 862.093 1557.27 867.61 1557 873.384 1557.47 C 872.927 1558.04 872.478 1558.61 872.038 1559.19 C 866.517 1566.55 868.946 1587.93 869.297 1597.19 C 869.44 1600.97 871.986 1602.47 874.954 1604.62 C 869.284 1604.72 862.774 1605.02 857.21 1604.33 C 857.79 1603.65 860.414 1600.39 860.525 1599.88 C 862.031 1593.03 862.054 1566.79 860.446 1560.99 C 858.617 1559.86 857.453 1559.32 856.309 1557.43 z"/>
<path transform="translate(0,0)" fill="rgb(9,38,73)" d="M 1119.29 1582.93 C 1119.1 1587.62 1118.76 1593 1119.06 1597.68 C 1119.27 1600.93 1120.92 1601.25 1123.79 1603.52 C 1121.38 1605.58 1111.58 1604.74 1107.86 1604.51 C 1106.36 1601.69 1110.86 1602.71 1111.3 1598.7 C 1112.5 1587.8 1112.51 1572.82 1111.19 1561.96 C 1111.23 1562.28 1108.05 1558.84 1107.31 1557.63 C 1109.96 1557.14 1113.91 1557.56 1116.71 1557.72 C 1121.12 1557.74 1125.43 1557.64 1129.81 1558.18 L 1126.31 1560.19 L 1119.19 1560.39 C 1119.19 1566.15 1118.89 1576 1119.54 1581.41 L 1119.29 1582.93 z"/>
<path transform="translate(0,0)" fill="rgb(10,19,51)" d="M 1116.71 1557.72 C 1121.12 1557.74 1125.43 1557.64 1129.81 1558.18 L 1126.31 1560.19 L 1119.19 1560.39 L 1115.65 1558.67 L 1116.71 1557.72 z"/>
<path transform="translate(0,0)" fill="rgb(9,38,73)" d="M 958.32 1564.6 C 959.697 1560.17 958.973 1560.13 961.875 1557.35 C 970.073 1560.17 976.65 1597.55 985.636 1603.8 L 984.795 1604.83 C 980.811 1605.06 974.742 1605.74 971.72 1603.12 C 971.709 1594.59 972.226 1596.25 968.709 1588.39 C 968.073 1587.84 967.566 1586.48 967.131 1585.59 C 966.898 1581.22 962.536 1571.63 960.282 1567.65 L 958.32 1564.6 z"/>
<path transform="translate(0,0)" fill="rgb(10,19,51)" d="M 958.32 1564.6 L 960.282 1567.65 C 962.536 1571.63 966.898 1581.22 967.131 1585.59 C 967.566 1586.48 968.073 1587.84 968.709 1588.39 L 952.32 1588.36 C 945.25 1605.77 950.353 1597.28 952.339 1604.51 C 947.33 1604.87 944.392 1604.67 939.405 1604.36 C 948.303 1594.24 953.125 1577.41 958.32 1564.6 z"/>
<path transform="translate(0,0)" fill="rgb(253,252,252)" d="M 960.282 1567.65 C 962.536 1571.63 966.898 1581.22 967.131 1585.59 C 963.336 1585.02 957.654 1585.14 953.683 1585.08 L 960.282 1567.65 z"/>
<path transform="translate(0,0)" fill="rgb(208,158,54)" d="M 965.235 695.564 C 966.262 697.702 968.118 702.66 968.802 703.923 C 964.545 716.516 958.603 727.901 954.487 739.987 C 952.262 739.287 950.233 737.613 948.279 736.243 C 953.907 722.663 959.155 708.955 965.235 695.564 z"/>
<path transform="translate(0,0)" fill="rgb(221,171,68)" d="M 662.77 676.613 C 666.946 687.275 671.222 697.897 675.599 708.478 C 672.385 714.037 673.533 713.793 673.559 721.188 C 668.658 709.981 663.971 697.75 659.376 686.344 C 659.813 681.716 659.654 680.116 662.77 676.613 z"/>
<path transform="translate(0,0)" fill="rgb(208,158,54)" d="M 676.541 728.251 C 681.391 729.862 679.549 729.944 683.794 728.596 L 689.322 741.864 C 686.837 745.597 687.152 747.289 687.164 751.746 L 686.485 752.449 C 682.831 744.527 679.513 736.453 676.541 728.251 z"/>
<path transform="translate(0,0)" fill="rgb(206,156,55)" d="M 944.456 745.24 L 951.543 747.025 C 949.832 751.372 946.135 762.815 940.552 762.673 C 938.22 757.625 942.436 750.016 944.456 745.24 z"/>
<path transform="translate(0,0)" fill="rgb(206,156,55)" d="M 689.322 741.864 C 691.405 746.807 696.058 756.003 695.956 760.843 L 694.566 762.526 L 691.487 762.563 C 688.659 759.574 687.919 756.371 686.485 752.449 L 687.164 751.746 C 687.152 747.289 686.837 745.597 689.322 741.864 z"/>
<path transform="translate(0,0)" fill="rgb(206,156,55)" d="M 675.599 708.478 L 683.794 728.596 C 679.549 729.944 681.391 729.862 676.541 728.251 L 673.559 721.188 C 673.533 713.793 672.385 714.037 675.599 708.478 z"/>
<path transform="translate(0,0)" fill="rgb(9,38,73)" d="M 623.079 1596.51 C 625.273 1595.21 628.107 1595.87 629.489 1598.02 C 630.872 1600.16 630.308 1603.02 628.212 1604.48 C 626.789 1605.47 624.938 1605.6 623.386 1604.83 C 621.834 1604.05 620.829 1602.49 620.765 1600.76 C 620.701 1599.03 621.588 1597.4 623.079 1596.51 z"/>
<path transform="translate(0,0)" fill="rgb(10,19,51)" d="M 339.964 1557.86 C 344.801 1557.74 355.787 1557.08 359.958 1558.17 C 361.529 1561.34 361.167 1563.12 361.152 1566.8 L 360.489 1567.37 C 356.319 1565.1 358.633 1563.54 353.46 1560.19 C 348.287 1559.54 344.118 1560.77 339.964 1557.86 z"/>
<path transform="translate(0,0)" fill="rgb(10,19,51)" d="M 1399.84 1557.84 L 1420.95 1557.66 L 1420.9 1565.09 L 1420.16 1565.67 C 1413.17 1560.19 1413.81 1560.01 1404.98 1560.28 C 1403.06 1559.73 1401.63 1558.79 1399.84 1557.84 z"/>
<path transform="translate(0,0)" fill="rgb(9,38,73)" d="M 1005.11 1596.46 C 1007.32 1595.11 1010.21 1595.82 1011.55 1598.04 C 1012.89 1600.26 1012.17 1603.14 1009.95 1604.48 C 1007.74 1605.81 1004.86 1605.1 1003.53 1602.88 C 1002.19 1600.67 1002.9 1597.8 1005.11 1596.46 z"/>
<path transform="translate(0,0)" fill="rgb(10,19,51)" d="M 912.028 1557.96 C 917.809 1557.75 924.984 1557.68 930.586 1556.91 C 930.63 1560.21 931.271 1564.14 929.873 1566.59 C 927.68 1564.46 925.511 1562.3 923.365 1560.12 C 919.057 1559.93 915.446 1560.31 912.028 1557.96 z"/>
<path transform="translate(0,0)" fill="rgb(9,38,73)" d="M 1444.01 1596.55 C 1446.2 1595.23 1449.04 1595.92 1450.38 1598.09 C 1451.72 1600.26 1451.07 1603.11 1448.92 1604.48 C 1447.5 1605.38 1445.71 1605.45 1444.23 1604.66 C 1442.74 1603.87 1441.8 1602.35 1441.76 1600.67 C 1441.71 1598.99 1442.57 1597.42 1444.01 1596.55 z"/>
<path transform="translate(0,0)" fill="rgb(10,19,51)" d="M 1245.75 1558 C 1250.62 1557.66 1258.75 1556.35 1262.65 1558.72 C 1263.69 1561.51 1263.49 1563.47 1263.52 1566.43 L 1262.76 1567.07 C 1259.92 1565.54 1259.57 1564.44 1257.75 1561.61 C 1256.19 1561.03 1254.76 1560.45 1253.16 1560 C 1249.28 1559.75 1249.11 1559.78 1245.75 1558 z"/>
<path transform="translate(0,0)" fill="rgb(10,19,51)" d="M 341.413 1579.42 L 342.864 1579.28 C 348.338 1578.74 349.473 1578.6 354.491 1576.13 L 356.488 1576.69 C 357.026 1580.29 356.97 1581.85 356.92 1585.53 L 355.755 1585.81 C 354.077 1584.46 352.687 1583.31 351.067 1581.87 L 346.599 1580.92 C 344.513 1580.73 343.343 1580.15 341.413 1579.42 z"/>
<path transform="translate(0,0)" fill="rgb(10,19,51)" d="M 1289.62 1579.44 C 1296.11 1578.76 1300.29 1580.09 1303.54 1574.16 L 1304.68 1574.12 C 1305.4 1578.19 1305.26 1580.61 1305.23 1584.7 L 1304.18 1585.46 C 1302.37 1583.87 1300.38 1581.77 1298.21 1580.99 C 1294.52 1580.77 1292.88 1580.97 1289.62 1579.44 z"/>
<path transform="translate(0,0)" fill="rgb(221,171,68)" d="M 948.279 736.243 C 950.233 737.613 952.262 739.287 954.487 739.987 L 951.543 747.025 L 944.456 745.24 L 948.279 736.243 z"/>
<path transform="translate(0,0)" fill="rgb(10,19,51)" d="M 1401.73 1579.47 C 1408.18 1578.88 1413.7 1576.05 1415.87 1576.64 C 1417 1580.26 1416.69 1581.04 1416.3 1584.95 L 1415.4 1585.46 C 1412.75 1582.55 1412.13 1581.78 1408.24 1581 C 1405 1580.69 1404.67 1580.73 1401.73 1579.47 z"/>
</svg>