<svg version="1.1" xmlns="http://www.w3.org/2000/svg" style="display: block;" viewBox="0 0 1281 2048" width="992" height="1586" preserveAspectRatio="none">
<path transform="translate(0,0)" fill="rgb(252,252,251)" d="M 0 0 L 1281 0 L 1281 2048 L 0 2048 L 0 0 z"/>
<path transform="translate(0,0)" fill="rgb(242,242,242)" d="M 244.859 504.743 C 240.06 504.755 231.086 505.866 227.608 502.116 C 222.151 496.234 165.277 366.327 165.259 362.178 C 165.256 361.338 165.349 361.211 165.584 360.52 C 204.415 358.562 254.187 359.91 293.681 359.919 L 527.433 359.938 L 697.944 359.947 C 718.203 359.954 763.251 358.734 782.264 360.498 C 777.336 373.795 769.96 388.87 763.668 401.684 C 747.189 435.244 732.188 470.083 715.718 503.576 C 712.329 503.826 703.815 504.452 700.041 504.717 C 699.918 504.726 697.623 507.475 697.555 507.466 C 687.17 506.015 676.694 505.799 666.22 505.98 C 662.156 506.05 657.61 505.759 653.602 506.543 C 652.893 512.132 653.047 515.448 648.97 519.393 C 645.88 525.93 644.322 527.152 638.335 531.308 C 637.752 530.884 628.829 524.121 629.059 524.247 C 623.669 520.562 623.31 513.781 622.026 507.335 C 616.208 504.322 378.902 506.576 355.022 507.291 C 340.423 507.728 315.171 505.4 299.464 506.505 C 290.252 507.152 281.01 508.876 272.795 509.667 C 265.788 510.342 255.281 505.091 246.263 506.937 C 248.469 522.027 259.386 533.454 258.587 540.604 C 253.716 533.661 245.103 513.447 244.859 504.743 z"/>
<path transform="translate(0,0)" fill="rgb(134,135,139)" d="M 623.995 504.988 C 628.54 477.023 658.518 486.557 650.022 515.998 C 649.691 517.136 649.34 518.268 648.97 519.393 C 645.88 525.93 644.322 527.152 638.335 531.308 C 637.752 530.884 628.829 524.121 629.059 524.247 C 625.802 516.099 624.927 513.799 623.995 504.988 z"/>
<path transform="translate(0,0)" fill="rgb(211,210,210)" d="M 244.859 504.743 L 488.928 505.038 L 574.357 505.28 C 590.012 505.32 608.588 505.779 623.995 504.988 C 624.927 513.799 625.802 516.099 629.059 524.247 C 623.669 520.562 623.31 513.781 622.026 507.335 C 616.208 504.322 378.902 506.576 355.022 507.291 C 340.423 507.728 315.171 505.4 299.464 506.505 C 290.252 507.152 281.01 508.876 272.795 509.667 C 265.788 510.342 255.281 505.091 246.263 506.937 C 248.469 522.027 259.386 533.454 258.587 540.604 C 253.716 533.661 245.103 513.447 244.859 504.743 z"/>
<path transform="translate(0,0)" fill="rgb(134,135,139)" d="M 632.86 446.998 C 655.929 444.141 662.784 470.244 642.558 481.733 C 619.514 483.116 615 458.271 632.86 446.998 z"/>
<path transform="translate(0,0)" fill="rgb(1,31,65)" d="M 873.687 984.412 C 901.471 981.816 929.725 995.552 944.275 1019.42 C 957.948 1041.84 959.136 1062.85 958.273 1088.12 L 837.962 1088.12 C 850.377 1134.58 897.099 1136.93 930.765 1110.69 L 937.223 1119.49 C 941.984 1126.12 946.626 1132.82 951.148 1139.61 C 932.599 1154.92 920.088 1162.09 895.042 1164.99 C 807.178 1175.16 764.106 1077.79 814.922 1013 C 828.777 995.339 851.273 986.36 873.687 984.412 z"/>
<path transform="translate(0,0)" fill="rgb(252,252,251)" d="M 870.585 1021.19 C 898.769 1018.71 910.337 1031.2 916.501 1057.41 L 887.25 1057.57 L 837.962 1057.52 C 843.765 1037.76 850.294 1027.35 870.585 1021.19 z"/>
<path transform="translate(0,0)" fill="rgb(1,31,65)" d="M 351.935 984.422 C 352.506 984.392 353.078 984.374 353.649 984.369 C 373.558 984.075 392.743 991.822 406.866 1005.86 C 430.339 1029.38 432.131 1057.53 432.035 1088.17 L 311.492 1088.29 C 324.354 1135 369.692 1137.14 404.249 1111.14 L 413.82 1124.53 C 417.507 1129.42 421.053 1134.73 424.542 1139.8 C 409.147 1154.26 389.364 1163.16 368.332 1165.1 C 342.976 1167.45 317.528 1161.48 298.236 1144.9 C 245.602 1099.65 262.935 999.336 335.633 986.13 C 341.34 985.093 346.25 984.752 351.935 984.422 z"/>
<path transform="translate(0,0)" fill="rgb(242,242,242)" d="M 344.972 1021.13 C 373.24 1018.67 385.194 1031.02 390.711 1057.64 C 380.273 1058.05 367.999 1057.73 357.425 1057.72 L 312.033 1057.67 C 316.711 1037.4 324.134 1026.34 344.972 1021.13 z"/>
<path transform="translate(0,0)" fill="rgb(207,23,25)" d="M 631.942 916.983 L 812.91 917.006 L 812.944 961.361 L 745.843 961.312 L 745.824 1095.5 L 745.766 1161.85 L 696.347 1161.95 L 696.548 961.339 L 631.961 961.3 L 631.942 916.983 z"/>
<path transform="translate(0,0)" fill="rgb(207,23,25)" d="M 91.0232 910.576 C 107.596 911.142 126.964 910.662 143.754 910.667 L 143.694 1117.62 L 248.822 1117.63 L 248.688 1161.84 C 199.775 1163.42 140.637 1161.92 90.9741 1161.93 L 91.0232 910.576 z"/>
<path transform="translate(0,0)" fill="rgb(1,31,65)" d="M 567.744 987.042 L 617.987 987.073 C 599.718 1013.94 577.219 1044.85 558.029 1071.13 L 598.684 1129.4 C 604.204 1137.38 615.106 1152.3 619.369 1160.35 L 618.384 1161.62 L 613.005 1161.85 L 569.518 1161.91 L 531.357 1103.07 L 492.655 1161.83 L 443.484 1161.84 C 463.202 1132.1 485.926 1100.9 506.584 1071.49 C 486.977 1043.28 467.217 1015.17 447.304 987.177 L 499.33 987.089 C 510.546 1003.85 521.674 1022.27 532.797 1039.35 C 544.546 1021.98 556.195 1004.54 567.744 987.042 z"/>
<path transform="translate(0,0)" fill="rgb(1,31,65)" d="M 1064.46 984.395 C 1093.41 982.358 1113.46 990.521 1135.11 1008.95 C 1125.93 1018.29 1116.14 1030.09 1107.45 1040.08 C 1049.03 991.896 1004.61 1067.49 1037.97 1108.15 C 1045.6 1117.32 1056.62 1122.99 1068.51 1123.88 C 1086.01 1125.28 1097.35 1117.4 1109.74 1106.76 L 1122.21 1122.08 L 1135.37 1138.24 C 1131.79 1141.32 1128.2 1144.4 1124.45 1147.29 C 1092.25 1172.15 1044.1 1171.72 1012.79 1145.46 C 994.824 1130.2 983.68 1108.42 981.824 1084.92 C 979.332 1059.54 987.101 1034.21 1003.4 1014.59 C 1019.45 995.638 1040.1 986.494 1064.46 984.395 z"/>
<path transform="translate(0,0)" fill="rgb(134,135,139)" d="M 788.056 556.259 L 791.435 557.255 C 797.772 564.485 837.489 669.452 845.243 686.35 C 847.232 687.47 847.434 687.559 849.674 688.136 L 850.205 688.269 C 848.586 715.59 816.362 731.904 791.838 733.66 C 765.961 732.54 740.754 720.685 731.041 694.148 C 730.165 691.753 729.678 689.448 730.921 687.304 C 732.966 686.857 734.499 686.491 735.352 684.285 C 747.802 652.076 761.884 620.52 775.039 588.598 C 779.465 577.858 784.401 567.286 788.056 556.259 z"/>
<path transform="translate(0,0)" fill="rgb(252,252,251)" d="M 790.003 570.529 C 793.265 575.947 802.671 600.004 805.773 607.547 L 838.766 687.825 L 790.5 687.687 C 774.067 687.723 757.634 687.675 741.202 687.546 C 757.245 648.447 773.512 609.441 790.003 570.529 z"/>
<path transform="translate(0,0)" fill="rgb(134,135,139)" d="M 486.978 556.131 C 488.126 556.521 489.503 556.989 491.109 557.534 C 505.965 591.546 520.416 628.47 534.829 662.399 C 538.225 670.391 543.499 684.76 545.099 686.908 C 547.247 687.416 547.606 687.423 549.64 688.435 C 549.031 696.207 542.421 706.65 537.197 712.209 C 523.57 726.711 510.046 732.387 490.832 733.589 C 488.119 733.572 485.408 733.437 482.706 733.184 C 463.193 731.187 427.537 709.747 429.782 688.011 C 431.029 687.802 433.411 687.524 433.986 686.1 C 446.112 656.028 458.536 626.063 470.928 596.097 C 476.334 583.024 482.43 569.493 486.978 556.131 z"/>
<path transform="translate(0,0)" fill="rgb(242,242,242)" d="M 488.461 570.492 C 491.682 573.284 533.431 675.697 538.165 687.665 L 491.5 687.781 L 440.39 687.795 L 488.461 570.492 z"/>
<path transform="translate(0,0)" fill="rgb(2,119,189)" d="M 1185.73 1072.9 C 1211.34 1069.63 1234.75 1087.76 1237.99 1113.38 C 1241.23 1139 1223.07 1162.39 1197.45 1165.6 C 1171.87 1168.81 1148.53 1150.68 1145.29 1125.1 C 1142.06 1099.53 1160.16 1076.16 1185.73 1072.9 z"/>
<path transform="translate(0,0)" fill="rgb(252,252,251)" d="M 1193.93 1101.93 C 1194.57 1101.91 1198.11 1101.83 1198.56 1101.98 C 1203.58 1103.75 1213.45 1120.47 1216.76 1125.22 C 1216.54 1118.85 1215.03 1107.11 1218.69 1102.53 C 1221.61 1101.98 1220.69 1101.7 1222.67 1103 C 1223.97 1111.23 1223.25 1128.84 1223.16 1137.71 C 1222.33 1137.67 1219.19 1137.45 1218.73 1137.17 C 1213.25 1133.94 1204.03 1118.48 1200.73 1113.51 C 1200.96 1119.84 1202.57 1132.37 1198.76 1136.77 C 1195.73 1137.41 1197.04 1137.68 1194.63 1136.41 C 1193.2 1128.78 1193.86 1110.23 1193.93 1101.93 z"/>
<path transform="translate(0,0)" fill="rgb(252,252,251)" d="M 1182.16 1116.08 C 1182.09 1111.28 1180.89 1103.02 1185.76 1101.05 C 1190.36 1106.66 1190.13 1131.96 1188.18 1138.61 C 1186.38 1138.25 1185.23 1137.86 1183.51 1137.3 C 1180.83 1133.24 1181.89 1127.6 1182.11 1122.44 L 1168 1122.42 C 1168.13 1127.7 1169.03 1132.41 1166.62 1136.59 C 1163.44 1137.59 1164.98 1137.59 1161.84 1136.68 C 1160.3 1129.32 1161.09 1110.1 1161.23 1101.5 C 1163.22 1101.72 1164.47 1101.97 1166.43 1102.4 C 1169.27 1106.71 1168.25 1110.3 1168.06 1116.01 L 1182.16 1116.08 z"/>
<path transform="translate(0,0)" fill="rgb(134,135,139)" d="M 631.39 562.138 C 637.104 561.928 643.689 560.566 647.722 564.945 C 648.78 572.479 648.157 597.079 648.154 605.976 L 648.133 689.293 C 648.125 711.647 648.324 739.193 647.848 761.944 C 647.811 763.716 646.445 764.128 645.008 765.028 C 639.443 765.23 632.557 766.258 628.278 762.913 C 626.778 760.408 626.582 756.953 626.587 754.055 C 626.681 693.873 626.688 633.686 626.58 573.511 C 626.57 567.857 627.159 565.845 631.39 562.138 z"/>
<path transform="translate(0,0)" fill="rgb(134,135,139)" d="M 582.066 516.09 C 604.946 514.561 632.684 517.5 630.919 549.369 C 630.753 552.372 629.632 554.638 627.197 556.45 C 622.744 556.882 622.126 552.945 617.174 549.61 C 592.945 533.295 548.373 544.775 521.232 550.149 C 513.692 551.363 505.153 552.498 497.551 552.68 C 489.346 552.877 465.928 549.356 466.898 537.905 C 467.608 537.037 469.411 534.39 470.824 534.797 C 484.12 538.625 491.459 543.895 505.717 541.857 C 532.939 537.966 555.665 522.308 582.066 516.09 z"/>
<path transform="translate(0,0)" fill="rgb(134,135,139)" d="M 670.248 516.212 C 704.872 512.374 727.951 530.254 759.677 539.438 C 779.711 545.238 786.122 541.756 805.219 536.561 C 807.663 535.896 809.22 536.985 810.9 538.521 C 810.644 550.683 788.714 552.212 779.707 552.831 C 754.44 550.714 733.177 544.599 708.439 541.557 C 694.254 539.813 672.328 541.303 660.067 548.472 C 656.975 550.279 653.478 553.719 650.523 556.144 L 648.179 555.714 C 642.645 550.699 644.775 537.512 648.033 531.551 C 652.805 522.821 661.069 519.05 670.248 516.212 z"/>
<path transform="translate(0,0)" fill="rgb(134,135,139)" d="M 632.329 771.085 C 651.838 770.018 656.433 776.214 664.092 792.89 C 671.108 793.244 690.687 792.898 680.933 805.333 C 674.059 809.011 651.017 807.194 641.75 807.199 C 633.328 807.291 597.846 808.449 592.808 806.154 C 589.743 790.43 597.841 793.285 611.142 792.549 C 611.754 791.188 612.399 789.842 613.076 788.512 C 618.336 778.195 621.508 774.551 632.329 771.085 z"/>
<path transform="translate(0,0)" fill="rgb(134,135,139)" d="M 568.945 811.994 C 611.575 810.418 665.234 811.612 708.319 812.045 C 708.445 816.909 708.891 822.368 707.597 826.986 L 568.12 827.013 C 568.005 822.104 567.556 816.631 568.945 811.994 z"/>
<path transform="translate(0,0)" fill="rgb(134,135,139)" d="M 312.909 1227.98 C 325.42 1224.7 338.204 1232.25 341.38 1244.79 C 344.555 1257.32 336.905 1270.05 324.343 1273.12 C 311.925 1276.16 299.378 1268.62 296.239 1256.22 C 293.1 1243.83 300.541 1231.22 312.909 1227.98 z"/>
<path transform="translate(0,0)" fill="rgb(242,242,242)" d="M 315.09 1234.06 C 336.148 1232.95 340.273 1258.34 321.857 1267.06 C 302.014 1267.41 297.299 1244.42 315.09 1234.06 z"/>
<path transform="translate(0,0)" fill="rgb(134,135,139)" d="M 917.306 1228.01 C 929.693 1224.71 942.414 1232.06 945.747 1244.44 C 949.079 1256.82 941.765 1269.56 929.395 1272.92 C 916.98 1276.3 904.183 1268.95 900.838 1256.53 C 897.493 1244.1 904.873 1231.33 917.306 1228.01 z"/>
<path transform="translate(0,0)" fill="rgb(252,252,251)" d="M 919.123 1234.04 C 939.313 1232.61 945.4 1255.79 927.407 1266.59 C 907.759 1269.58 901.752 1245.59 919.123 1234.04 z"/>
<path transform="translate(0,0)" fill="rgb(134,135,139)" d="M 600.688 1227.08 C 611.179 1226.95 621.59 1226.08 630.621 1232.45 C 643.862 1241.79 641.201 1256.13 632.669 1267.64 C 622.457 1275.53 613.509 1274 600.816 1273.81 L 600.688 1227.08 z"/>
<path transform="translate(0,0)" fill="rgb(242,242,242)" d="M 608.098 1234.64 C 628.091 1234.18 638.797 1244.05 627.206 1262.7 C 620.29 1267.38 616.362 1266.73 608.178 1266.62 L 608.098 1234.64 z"/>
<path transform="translate(0,0)" fill="rgb(134,135,139)" d="M 354.044 1227.13 C 367.715 1226.92 392.369 1223.74 388.986 1245.36 C 388.115 1250.93 383.964 1253.45 379.716 1256.43 C 382.431 1260.95 388.71 1268.21 388.771 1272.53 C 386.514 1274.6 385.36 1273.87 381.551 1273.9 C 377.85 1268.36 373.104 1255.93 365.874 1257.45 C 357.377 1259.23 365.472 1267.48 360.837 1273.7 C 357.918 1274.1 357.643 1274.27 354.97 1273.29 C 353.195 1270.3 354.035 1233.67 354.044 1227.13 z"/>
<path transform="translate(0,0)" fill="rgb(242,242,242)" d="M 361.796 1234.54 C 373.61 1234.26 384.899 1232.84 379.819 1248.47 C 374.31 1251.15 368.062 1250.48 362.016 1250.28 L 361.796 1234.54 z"/>
<path transform="translate(0,0)" fill="rgb(134,135,139)" d="M 855.646 1227.19 C 869.57 1226.98 893.798 1223.67 889.949 1246.24 C 889.121 1251.1 884.239 1254.04 880.421 1256.47 C 883.308 1260.57 889.724 1268.25 889.781 1272.52 C 887.561 1274.47 886.64 1273.8 883.007 1273.82 C 877.43 1267.2 875.927 1256.91 866.04 1257.31 C 859.675 1257.57 865.798 1268.72 862.139 1273.48 C 859.321 1273.91 859.134 1274.03 856.54 1273.08 C 854.778 1270.22 855.678 1234.56 855.646 1227.19 z"/>
<path transform="translate(0,0)" fill="rgb(252,252,251)" d="M 863.137 1234.88 C 874.203 1234.4 887.171 1232.96 880.423 1248.68 C 874.856 1250.99 869.123 1250.58 863.214 1250.44 L 863.137 1234.88 z"/>
<path transform="translate(0,0)" fill="rgb(134,135,139)" d="M 811.112 1227.22 C 819.246 1227.12 831.182 1226.04 837.936 1230.81 C 852.718 1241.24 843.416 1256.53 828.25 1258.39 C 824.616 1258.29 822.934 1258.34 819.312 1258.65 C 816.509 1264.01 820.63 1268.73 817.892 1273.31 C 814.854 1274.13 814.443 1274.25 811.566 1273.04 C 810.281 1269.34 811.105 1233.45 811.112 1227.22 z"/>
<path transform="translate(0,0)" fill="rgb(252,252,251)" d="M 818.472 1234.82 C 829.747 1234.27 840.329 1234.27 834.75 1249.06 C 829.395 1251.55 824.385 1251.09 818.546 1251.1 L 818.472 1234.82 z"/>
<path transform="translate(0,0)" fill="rgb(134,135,139)" d="M 417.688 1226.9 C 420.882 1226.86 421.72 1226.63 424.565 1227.84 C 427.771 1233.63 440.972 1267.13 442.054 1272.8 C 439.031 1274.45 440.195 1274.35 437.102 1274.1 C 431.056 1269.6 435.151 1263.73 426.25 1262.5 L 410.983 1262.54 C 409.735 1266.13 408.961 1268.58 407.128 1271.97 C 403.792 1273.99 405.279 1273.45 400.972 1273.61 L 399.823 1272.34 C 401.359 1264.29 413.95 1235.84 417.688 1226.9 z"/>
<path transform="translate(0,0)" fill="rgb(242,242,242)" d="M 420.531 1237.72 C 423.16 1239.94 427.763 1251.65 426.618 1255.37 L 423.75 1255.56 C 419.454 1255.42 418.253 1256.17 415.395 1253.96 C 414.475 1249.95 418.736 1242.11 420.531 1237.72 z"/>
<path transform="translate(0,0)" fill="rgb(134,135,139)" d="M 514.117 1227.01 C 517.584 1227.12 518.697 1226.58 521.304 1228.28 C 524.276 1233.97 538.094 1267.79 538.615 1272.89 L 536.344 1274.3 C 527.433 1272.5 532.941 1263.39 521.75 1262.53 L 507.823 1262.52 C 505.198 1269.37 505.585 1273.46 498.413 1273.74 L 497.506 1272.59 C 496.991 1265.58 510.504 1235.7 514.117 1227.01 z"/>
<path transform="translate(0,0)" fill="rgb(242,242,242)" d="M 517.024 1237.55 C 519.749 1240.66 524.63 1250.98 522.476 1255.06 L 518.907 1255.51 C 516.735 1255.58 515.295 1255.5 513.123 1255.36 L 511.773 1253.74 C 511.476 1249.81 515.386 1241.91 517.024 1237.55 z"/>
<path transform="translate(0,0)" fill="rgb(134,135,139)" d="M 132.063 1227.09 C 134.82 1226.96 135.111 1226.97 137.799 1227.54 C 142.195 1232.06 155.929 1267.49 156.663 1272.81 C 153.931 1274.61 155.383 1274.19 152.177 1274.2 C 145.884 1269.82 149.08 1263.72 141.25 1262.48 L 125.539 1262.66 C 124.018 1266.92 123.309 1269.12 121.015 1273.05 C 118.767 1273.81 117.231 1273.38 114.87 1273.08 C 113.613 1269.33 129.405 1233.51 132.063 1227.09 z"/>
<path transform="translate(0,0)" fill="rgb(252,252,251)" d="M 134.958 1237.49 C 137.784 1240.65 142.13 1250.79 140.885 1255.11 L 138.233 1255.67 C 134.242 1255.49 132.67 1256.17 130.128 1254.05 C 128.918 1249.76 133.003 1242.24 134.958 1237.49 z"/>
<path transform="translate(0,0)" fill="rgb(134,135,139)" d="M 729.789 1227.04 L 735.156 1227.07 C 739.273 1229.9 751.379 1264.17 754.379 1272.03 C 753.561 1273.93 753.788 1273.33 751.31 1274.48 C 743.742 1272.91 747.365 1263.23 738.25 1262.44 L 722.955 1262.63 C 721.619 1266.2 720.258 1271.18 717.516 1273.49 C 715.548 1273.71 714.694 1274.03 712.981 1273.06 C 711.997 1266.59 726.349 1235.23 729.789 1227.04 z"/>
<path transform="translate(0,0)" fill="rgb(252,252,251)" d="M 732.652 1237.71 C 735.039 1239.78 740.036 1251.54 738.863 1255.01 L 736.246 1255.55 C 732.184 1255.52 730.099 1256.19 727.42 1253.97 C 726.549 1249.99 730.859 1242.08 732.652 1237.71 z"/>
<path transform="translate(0,0)" fill="rgb(134,135,139)" d="M 1058.9 1227.13 C 1065.45 1226.68 1074.62 1225.86 1078.89 1231.95 C 1079.73 1235.63 1080.01 1234.37 1078.46 1237.13 C 1072.19 1239.8 1053.74 1224.41 1051.06 1248.07 C 1048.26 1272.87 1078.43 1271.55 1074.94 1256.28 C 1068.07 1252.4 1067.41 1259.19 1063.33 1250.08 C 1067.27 1246.57 1077.09 1247.81 1082.85 1247.91 L 1082.89 1267.88 C 1047.37 1290.93 1025.58 1242.75 1058.9 1227.13 z"/>
<path transform="translate(0,0)" fill="rgb(134,135,139)" d="M 1000.24 1227.19 C 1008.15 1227.26 1031.21 1223.86 1032.78 1232.09 C 1028.46 1237.08 1017.25 1232.69 1008.98 1235.16 C 1007.5 1237.82 1008 1243.5 1008.03 1246.83 C 1013.15 1246.7 1026.69 1245.16 1028.56 1250.88 C 1023.41 1255.38 1014.9 1254.12 1007.97 1253.96 L 1008.07 1266.5 C 1014.81 1266.66 1027.29 1264.72 1031.85 1268.53 C 1032.17 1271.51 1032.45 1270.5 1031.3 1273.03 C 1025.2 1274.5 1007.19 1273.87 1000.24 1273.81 C 1000.38 1258.27 1000.38 1242.73 1000.24 1227.19 z"/>
<path transform="translate(0,0)" fill="rgb(134,135,139)" d="M 210.882 1227.29 C 218.14 1227.28 234.684 1226.69 240.95 1227.63 C 242.726 1229.54 242.179 1228.82 242.432 1232.03 C 237.341 1238.5 225.987 1231.63 218.665 1235.37 C 217.538 1237.92 218.037 1243.58 218.112 1246.7 C 223.315 1246.65 237.275 1245.51 239.641 1250.79 C 234.628 1255.22 225.021 1254.13 218.384 1254.01 C 218.001 1256.65 218.077 1263.29 218.035 1266.27 C 223.823 1266.22 238.5 1265.14 242.543 1268.51 C 242.795 1271.66 243.105 1270.57 241.832 1273.26 C 233.083 1274.46 220.04 1273.84 210.86 1273.68 C 210.637 1258.21 210.644 1242.75 210.882 1227.29 z"/>
<path transform="translate(0,0)" fill="rgb(134,135,139)" d="M 1096.85 1227.22 C 1102.89 1227.2 1124.62 1225.88 1127.83 1228.85 C 1127.63 1232.29 1128.18 1231.03 1125.68 1233.56 C 1120.95 1235.29 1109.95 1234.51 1104.16 1234.5 L 1103.99 1246.82 C 1109.07 1246.71 1123 1245.4 1125.14 1250.8 C 1120.17 1255.25 1110.78 1254.09 1104.07 1253.98 L 1104.09 1266.35 C 1110.53 1266.41 1123.18 1264.28 1127.7 1268.65 C 1128.21 1271.57 1128.43 1270.54 1127.34 1273.03 C 1120.44 1274.71 1104.44 1273.87 1096.8 1273.74 L 1096.85 1227.22 z"/>
<path transform="translate(0,0)" fill="rgb(134,135,139)" d="M 549.022 1226.81 C 551.661 1226.9 552.321 1226.78 554.752 1227.68 C 561.342 1238.66 548.718 1269.03 568.959 1266.92 C 585.243 1265.22 574.324 1234.67 580.567 1227.22 C 583.932 1226.66 582.548 1226.48 585.798 1228.09 L 586.12 1231.75 C 586.254 1239.95 588.281 1262.96 580.897 1269.38 C 570.022 1278.82 551.713 1275.14 549.458 1258.85 C 548.106 1249.09 548.772 1237.52 549.022 1226.81 z"/>
<path transform="translate(0,0)" fill="rgb(134,135,139)" d="M 175.873 1227.09 C 182.291 1226.48 192.852 1226.61 196.046 1233.28 C 192.549 1238.96 183.226 1233.42 174.333 1235.55 L 173.163 1238.33 C 176.297 1246.22 195.554 1247.61 199.155 1258.4 C 201.848 1266.47 192.066 1272.21 185.906 1274.32 C 177.214 1274.16 171.944 1273.72 165.402 1267.26 L 165.924 1265.41 C 173.691 1258.59 183.59 1274.46 190.698 1262.98 C 188.094 1253.71 146.044 1244.5 175.873 1227.09 z"/>
<path transform="translate(0,0)" fill="rgb(134,135,139)" d="M 262.906 1227.13 C 268.748 1226.56 280.843 1226.61 283.775 1232.76 C 278.764 1242.82 276.062 1233.19 265.734 1233.68 C 259.757 1236.93 261.51 1242.77 267.825 1244.77 C 285.339 1250.29 298.146 1264.93 274.214 1274.33 C 264.828 1274.34 259.382 1273.61 253.015 1265.97 L 254.455 1262.51 C 263.089 1261.91 272.441 1273.89 278.094 1262.6 C 275.903 1252.52 235.485 1247.39 262.906 1227.13 z"/>
<path transform="translate(0,0)" fill="rgb(134,135,139)" d="M 954.004 1227.25 C 962.353 1227.35 986.481 1223.62 989.071 1232.2 L 988.26 1233.7 C 984.521 1235.28 979.288 1234.82 975.066 1234.79 L 974.956 1258.75 C 975.144 1263.78 976.045 1269.63 973.404 1273.61 C 969.755 1273.78 970.56 1274.24 967.682 1272.79 C 966.642 1264.03 967.407 1244.4 967.405 1234.65 C 962.831 1234.63 959.914 1235.67 955.527 1234.21 C 953.412 1231.19 954.07 1231.34 954.004 1227.25 z"/>
<path transform="translate(0,0)" fill="rgb(134,135,139)" d="M 672.899 1227.23 C 681.057 1227.26 704.235 1224.06 707.629 1231.7 L 706.935 1233.4 C 703.464 1235.43 698.24 1234.91 694.051 1234.9 L 694.027 1261.5 C 694.116 1265.45 694.694 1269.95 693.09 1273.35 L 690.381 1274.29 L 688.511 1273.16 C 685.024 1266.43 686.524 1243.44 686.578 1234.75 C 682.133 1234.74 678.89 1235.7 674.633 1234.43 C 672.312 1231.72 673.042 1231.44 672.899 1227.23 z"/>
<path transform="translate(0,0)" fill="rgb(134,135,139)" d="M 652.687 1227.03 C 654.762 1227.09 657.058 1227.34 659.151 1227.52 C 661.205 1230.03 660.342 1267.44 660.314 1273.71 C 658.253 1273.7 656.356 1273.49 654.31 1273.31 C 651.596 1270.02 652.724 1234.9 652.687 1227.03 z"/>
<path transform="translate(0,0)" fill="rgb(134,135,139)" d="M 455.94 1264.45 C 458.398 1263.46 461.204 1264.56 462.332 1266.96 C 463.459 1269.36 462.516 1272.22 460.182 1273.48 C 458.554 1274.35 456.573 1274.26 455.035 1273.23 C 453.497 1272.2 452.654 1270.41 452.843 1268.57 C 453.033 1266.73 454.225 1265.14 455.94 1264.45 z"/>
<path transform="translate(0,0)" fill="rgb(134,135,139)" d="M 767.441 1264.56 C 769.799 1263.3 772.726 1264.13 774.08 1266.43 C 775.434 1268.73 774.734 1271.69 772.493 1273.14 C 770.955 1274.14 768.995 1274.21 767.387 1273.33 C 765.78 1272.45 764.785 1270.76 764.797 1268.93 C 764.808 1267.1 765.823 1265.42 767.441 1264.56 z"/>
<path transform="translate(0,0)" fill="rgb(134,135,139)" d="M 1142.85 1264.49 C 1145.32 1263.68 1147.99 1264.92 1148.95 1267.34 C 1149.9 1269.75 1148.81 1272.49 1146.46 1273.59 C 1144.81 1274.35 1142.87 1274.14 1141.42 1273.04 C 1139.98 1271.94 1139.26 1270.13 1139.56 1268.33 C 1139.86 1266.54 1141.13 1265.06 1142.85 1264.49 z"/>
</svg>